<svg width="143" height="40" viewBox="0 0 143 40" fill="none" xmlns="http://www.w3.org/2000/svg">
<g clip-path="url(#clip0_3583_4820)">
<path d="M41.1523 18.3472L45.7734 6.93677H48.927L53.4856 18.3472H50.4882L49.4578 15.5897H45.0865L44.0561 18.3472H41.1523ZM45.8983 13.3393H48.6148L47.2721 9.69429L45.8983 13.3393Z" fill="#202020"/>
<path d="M55.0781 18.3472V6.93677H60.8232C61.6038 6.93677 62.2908 7.09525 62.884 7.4122C63.4772 7.72916 63.9456 8.1412 64.2891 8.71173C64.6325 9.25056 64.7886 9.88447 64.7886 10.5818C64.7886 11.3108 64.6013 11.9447 64.1954 12.5152C63.8207 13.0857 63.2899 13.4978 62.6654 13.8147L65.1321 18.3789H62.041L59.949 14.1951H57.857V18.3472H55.0781ZM57.8258 11.913H60.5422C60.9794 11.913 61.3228 11.7862 61.5726 11.5643C61.8224 11.3108 61.9785 11.0255 61.9785 10.6452C61.9785 10.2648 61.8536 9.94786 61.5726 9.72599C61.3228 9.47242 60.9794 9.37734 60.5422 9.37734H57.8258V11.913Z" fill="#202020"/>
<path d="M82.0864 18.3472V6.93677H91.0163V9.37734H84.8341V11.501H88.9556V13.8464H84.8341V18.3472H82.0864Z" fill="#202020"/>
<path d="M106.222 18.3472V6.93677H111.967C112.747 6.93677 113.434 7.09525 114.028 7.4122C114.621 7.72916 115.089 8.1412 115.433 8.71173C115.776 9.25056 115.932 9.88447 115.932 10.5818C115.932 11.3108 115.745 11.9447 115.339 12.5152C114.964 13.0857 114.433 13.4978 113.809 13.8147L116.276 18.3789H113.185L111.093 14.1951H109.001V18.3472H106.222ZM109.001 11.913H111.717C112.154 11.913 112.498 11.7862 112.747 11.5643C112.997 11.3108 113.153 11.0255 113.153 10.6452C113.153 10.2648 113.028 9.94786 112.747 9.72599C112.498 9.47242 112.154 9.37734 111.717 9.37734H109.001V11.913Z" fill="#202020"/>
<path d="M98.0726 9.21888C99.9148 9.21888 101.445 10.7403 101.445 12.642C101.445 14.5438 99.946 16.0652 98.0726 16.0652C96.2304 16.0652 94.7004 14.5438 94.7004 12.642C94.7004 10.7403 96.1992 9.21888 98.0726 9.21888ZM98.0726 6.58813C94.7629 6.58813 92.1089 9.31397 92.1089 12.642C92.1089 16.0018 94.7941 18.6959 98.0726 18.6959C101.382 18.6959 104.036 15.9701 104.036 12.642C104.036 9.28227 101.351 6.58813 98.0726 6.58813Z" fill="#202020"/>
<path d="M42.1826 35.4629V24.0525H44.9303V35.4629H42.1826Z" fill="#202020"/>
<path d="M47.3657 35.4629V24.0525H49.9573L55.0779 30.6769V24.0525H57.8256V35.4629H55.234L49.9573 28.585V35.4629H47.3657Z" fill="#202020"/>
<path d="M63.4773 35.4629V26.5248H59.793V24.0525H69.9094V26.5248H66.225V35.4629H63.4773Z" fill="#202020"/>
<path d="M71.876 35.4629V24.0525H77.6211C78.4017 24.0525 79.0886 24.211 79.6818 24.5279C80.2751 24.8449 80.7435 25.2569 81.0869 25.8274C81.4304 26.3663 81.5865 27.0002 81.5865 27.6975C81.5865 28.4265 81.3991 29.0604 80.9932 29.6309C80.6186 30.2015 80.0878 30.6135 79.4633 30.9305L81.9299 35.4946H78.8388L76.7468 31.3108H74.6549V35.4629H71.876ZM74.6549 29.0287H77.3713C77.8084 29.0287 78.1519 28.9019 78.4017 28.6801C78.6515 28.4265 78.8076 28.1412 78.8076 27.7609C78.8076 27.3805 78.6827 27.0636 78.4017 26.8417C78.1519 26.5881 77.8084 26.4931 77.3713 26.4931H74.6549V29.0287Z" fill="#202020"/>
<path d="M100.009 35.4629L95.4502 24.0525H98.4476L101.632 32.5469L104.911 24.0525H107.783L103.162 35.4629H100.009Z" fill="#202020"/>
<path d="M109.344 35.4629V24.0525H118.212V26.4931H112.092V28.5533H116.12V30.8988H112.092V33.0541H118.274V35.4946H109.344V35.4629Z" fill="#202020"/>
<path d="M121.022 35.4629V24.0525H126.767C127.548 24.0525 128.235 24.211 128.828 24.5279C129.421 24.8449 129.889 25.2569 130.233 25.8274C130.576 26.3663 130.732 27.0002 130.732 27.6975C130.732 28.4265 130.545 29.0604 130.139 29.6309C129.765 30.2015 129.234 30.6135 128.609 30.9305L131.076 35.4946H128.016L125.893 31.3108H123.801V35.4629H121.022ZM123.801 29.0287H126.517C126.954 29.0287 127.298 28.9019 127.548 28.6801C127.797 28.4265 127.954 28.1412 127.954 27.7609C127.954 27.3805 127.829 27.0636 127.548 26.8417C127.298 26.5881 126.954 26.4931 126.517 26.4931H123.801V29.0287Z" fill="#202020"/>
<path d="M135.978 35.4629V26.5248H132.293V24.0525H142.41V26.5248H138.725V35.4629H135.978Z" fill="#202020"/>
<path d="M89.0804 26.3346C90.9226 26.3346 92.4525 27.856 92.4525 29.7577C92.4525 31.6278 90.9538 33.1809 89.0804 33.1809C87.2382 33.1809 85.7082 31.6595 85.7082 29.7577C85.7082 27.856 87.207 26.3346 89.0804 26.3346ZM89.0804 23.7039C85.7707 23.7039 83.1167 26.4297 83.1167 29.7577C83.1167 33.0858 85.8019 35.8116 89.0804 35.8116C92.3901 35.8116 95.0441 33.0858 95.0441 29.7577C95.0441 26.4297 92.3588 23.7039 89.0804 23.7039Z" fill="#202020"/>
<path d="M70.0027 18.3472V9.40903H66.3184V6.93677H76.4348V9.40903H72.7504V18.3472H70.0027Z" fill="#202020"/>
<path d="M33.1592 1.19995C35.0326 1.19995 36.5626 2.75304 36.5626 4.65478C36.5626 6.55653 35.0326 8.10962 33.1592 8.10962C31.2858 8.10962 29.7559 6.55653 29.7559 4.65478C29.7559 2.75304 31.2858 1.19995 33.1592 1.19995Z" fill="#FFDB3C"/>
<path d="M16.8607 4.11587C7.55609 4.11587 0 11.7862 0 21.2316C0 30.6769 7.55609 38.3473 16.8607 38.3473C26.1653 38.3473 33.7214 30.6769 33.7214 21.2316C33.6589 11.7228 26.1028 4.05248 16.8607 4.11587ZM16.8607 31.3742C11.3341 31.3742 6.83795 26.81 6.83795 21.1999C6.83795 15.5897 11.3029 11.0255 16.8607 11.0255C22.4185 11.0255 26.8522 15.5897 26.8522 21.1999C26.8522 26.81 22.3873 31.3742 16.8607 31.3742Z" fill="#FFDB3C"/>
<path d="M33.6902 21.1999C33.6589 11.7228 26.1028 4.05248 16.8607 4.11587C15.1122 4.11587 13.4573 4.36943 11.8649 4.87657L9.21094 14.6389C11.0531 12.4201 13.8008 11.0255 16.8607 11.0255C22.3873 11.0255 26.8834 15.5897 26.8834 21.1999C26.8834 23.4186 26.1965 25.4471 25.01 27.127L33.6902 21.6753C33.6902 21.5168 33.6902 21.3583 33.6902 21.1999Z" fill="#E6A500"/>
</g>
<defs>
<clipPath id="clip0_3583_4820">
<rect width="142.667" height="40" fill="white"/>
</clipPath>
</defs>
</svg>