<svg width="24" height="24" viewBox="0 0 24 24" fill="none" xmlns="http://www.w3.org/2000/svg">
<path fill-rule="evenodd" clip-rule="evenodd" d="M2.40002 12C2.40002 6.69807 6.69809 2.4 12 2.4C17.302 2.4 21.6 6.69807 21.6 12C21.6 17.3019 17.302 21.6 12 21.6C6.69809 21.6 2.40002 17.3019 2.40002 12ZM17.0486 10.4485C17.5172 9.9799 17.5172 9.2201 17.0486 8.75147C16.5799 8.28284 15.8201 8.28284 15.3515 8.75147L10.8 13.3029L9.24855 11.7515C8.77992 11.2828 8.02013 11.2828 7.5515 11.7515C7.08287 12.2201 7.08287 12.9799 7.5515 13.4485L9.9515 15.8485C10.4201 16.3172 11.1799 16.3172 11.6486 15.8485L17.0486 10.4485Z" fill="#A1D6BC"/>
</svg>
