<svg width="16" height="16" viewBox="0 0 16 16" fill="none" xmlns="http://www.w3.org/2000/svg">
<g clip-path="url(#clip0_694_9498)">
<path fill-rule="evenodd" clip-rule="evenodd" d="M8.00183 15.5218L7.99692 15.5218C7.35348 15.5209 6.72516 15.323 6.19342 14.9537C3.97489 13.4178 2.91624 12.2929 2.2722 11.4928C0.936871 9.83342 0.185965 7.96647 0.206464 5.86857C0.235545 2.94523 2.54097 0.478271 5.4762 0.478271C6.48781 0.478271 7.33792 0.821098 8.00884 1.24834C8.67092 0.821689 9.51399 0.478271 10.5236 0.478271C13.459 0.478271 15.7643 2.94493 15.7934 5.8684C15.8139 7.96694 15.0624 9.83394 13.7281 11.4925L13.7276 11.4931C13.0834 12.2935 12.0242 13.4189 9.80391 14.9557C9.27236 15.324 8.64459 15.5212 8.00183 15.5218ZM8.14024 4.38959C8.12558 4.40681 8.10746 4.42062 8.08711 4.43008C8.06676 4.43954 8.04465 4.44444 8.02228 4.44444C7.99992 4.44444 7.97781 4.43954 7.95746 4.43008C7.93711 4.42062 7.91899 4.40681 7.90433 4.38959C7.44135 3.84053 6.62401 2.90235 5.4762 2.90235C3.8977 2.90235 2.60016 4.24367 2.58376 5.89272C2.5697 7.33175 3.06835 8.66059 4.10992 9.95492C4.59867 10.5621 5.48479 11.5333 7.53121 12.9498C7.66935 13.0459 7.83267 13.0975 7.99992 13.0977C8.16714 13.0976 8.33046 13.0461 8.46863 12.9501C10.515 11.5336 11.4012 10.5624 11.8899 9.95519C12.931 8.66112 13.4301 7.33228 13.4161 5.89298C13.3997 4.24367 12.1021 2.90235 10.5236 2.90235C9.39243 2.90235 8.62565 3.81307 8.16053 4.36551C8.1537 4.37361 8.14694 4.38164 8.14024 4.38959Z" fill="#FCECEC"/>
<path d="M7.99995 13.0977C7.8327 13.0975 7.66938 13.0459 7.53124 12.9498C5.48482 11.5333 4.5987 10.5621 4.10994 9.95492C3.06838 8.66059 2.56972 7.33174 2.58379 5.89271C2.60019 4.24367 3.89773 2.90234 5.47622 2.90234C6.62403 2.90234 7.44138 3.84053 7.90435 4.38959C7.91902 4.4068 7.93714 4.42061 7.95749 4.43007C7.97784 4.43953 7.99995 4.44443 8.02231 4.44443C8.04468 4.44443 8.06678 4.43953 8.08713 4.43007C8.10748 4.42061 8.1256 4.4068 8.14027 4.38959C8.60325 3.83999 9.37586 2.90234 10.5237 2.90234C12.1022 2.90234 13.3997 4.24367 13.4161 5.89298C13.4302 7.33227 12.931 8.66112 11.8899 9.95518C11.4012 10.5624 10.5151 11.5336 8.46865 12.9501C8.33048 13.0461 8.16717 13.0975 7.99995 13.0977Z" fill="#FF453A"/>
<path fill-rule="evenodd" clip-rule="evenodd" d="M8.00113 14.3097L7.99868 14.3097C7.59333 14.3092 7.19751 14.1845 6.86258 13.9517C4.73011 12.4756 3.75773 11.4275 3.19131 10.7239C2.00287 9.247 1.37809 7.6491 1.39537 5.88064C1.41811 3.59445 3.21959 1.69031 5.47645 1.69031C6.56642 1.69031 7.42255 2.23168 8.01483 2.76069C8.59259 2.23358 9.43396 1.69031 10.5239 1.69031C12.7808 1.69031 14.5822 3.5943 14.605 5.88069C14.6223 7.64961 13.9969 9.24753 12.8092 10.7239C12.2428 11.4276 11.2702 12.4759 9.13764 13.9521C8.80254 14.1848 8.40657 14.3094 8.00113 14.3097ZM8.1405 4.38959C8.12584 4.40681 8.10771 4.42061 8.08736 4.43008C8.06701 4.43954 8.04491 4.44443 8.02254 4.44443C8.00018 4.44443 7.97807 4.43954 7.95772 4.43008C7.93737 4.42061 7.91925 4.40681 7.90459 4.38959C7.44161 3.84053 6.62426 2.90235 5.47645 2.90235C3.89796 2.90235 2.60042 4.24367 2.58402 5.89271C2.56995 7.33174 3.06861 8.66059 4.11018 9.95492C4.59893 10.5621 5.48505 11.5333 7.53147 12.9498C7.66961 13.0459 7.83293 13.0975 8.00018 13.0977C8.1674 13.0975 8.33072 13.0461 8.46888 12.9501C10.5153 11.5336 11.4014 10.5624 11.8902 9.95518C12.9312 8.66112 13.4304 7.33227 13.4163 5.89298C13.3999 4.24367 12.1024 2.90235 10.5239 2.90235C9.39269 2.90235 8.62591 3.81307 8.16078 4.3655C8.15396 4.37361 8.1472 4.38164 8.1405 4.38959Z" fill="#FFA6A0"/>
<path d="M7.99995 13.0977C7.8327 13.0975 7.66938 13.0459 7.53124 12.9498C5.48482 11.5333 4.5987 10.5621 4.10994 9.95492C3.06838 8.66059 2.56972 7.33174 2.58379 5.89271C2.60019 4.24367 3.89773 2.90234 5.47622 2.90234C6.62403 2.90234 7.44138 3.84053 7.90435 4.38959C7.91902 4.4068 7.93714 4.42061 7.95749 4.43007C7.97784 4.43953 7.99995 4.44443 8.02231 4.44443C8.04468 4.44443 8.06678 4.43953 8.08713 4.43007C8.10748 4.42061 8.1256 4.4068 8.14027 4.38959C8.60325 3.83999 9.37586 2.90234 10.5237 2.90234C12.1022 2.90234 13.3997 4.24367 13.4161 5.89298C13.4302 7.33227 12.931 8.66112 11.8899 9.95518C11.4012 10.5624 10.5151 11.5336 8.46865 12.9501C8.33048 13.0461 8.16717 13.0975 7.99995 13.0977Z" fill="#FF3B2F"/>
</g>
<defs>
<clipPath id="clip0_694_9498">
<rect width="16" height="16" fill="white"/>
</clipPath>
</defs>
</svg>
