<svg width="26" height="26" viewBox="0 0 26 26" fill="none" xmlns="http://www.w3.org/2000/svg">
<path d="M23.1091 0C24.4179 0 25.48 1.0623 25.48 2.3712C25.48 3.68011 24.4179 4.74241 23.1091 4.74241C21.8004 4.74241 20.7383 3.68011 20.7383 2.3712C20.7383 1.0623 21.7966 0 23.1091 0Z" fill="#FFDB3C"/>
<path d="M11.7405 1.99553C5.25761 1.99553 0 7.25011 0 13.7377C0 20.2253 5.25382 25.4799 11.7405 25.4799C18.2233 25.4799 23.481 20.2253 23.481 13.7377C23.4468 7.21976 18.1892 1.96138 11.7405 1.99553ZM11.7405 20.7148C7.88642 20.7148 4.76068 17.5886 4.76068 13.7339C4.76068 9.8793 7.88642 6.75311 11.7405 6.75311C15.5945 6.75311 18.7203 9.8793 18.7203 13.7339C18.7203 17.5886 15.5945 20.7148 11.7405 20.7148Z" fill="#FFDB3C"/>
<path d="M23.4842 13.7304C23.4539 7.2162 18.1963 1.95782 11.7437 1.98817C10.5299 1.98817 9.36151 2.17028 8.26143 2.51173L6.41406 9.21939C7.69622 7.70941 9.60429 6.74575 11.74 6.74575C15.594 6.74575 18.7198 9.87194 18.7198 13.7266C18.7198 15.2403 18.2342 16.6403 17.4186 17.7861L23.4728 14.0491C23.4766 13.9428 23.4842 13.8366 23.4842 13.7304Z" fill="#E6A500"/>
</svg>