<svg width="24" height="24" viewBox="0 0 24 24" fill="none" xmlns="http://www.w3.org/2000/svg">
<path fill-rule="evenodd" clip-rule="evenodd" d="M12 3.75C8.77332 3.75 6.04297 6.6394 6.04297 10.3517V10.36L6.01856 12.5413C6.01753 14.1527 5.43878 15.4935 4.82122 16.4318H19.1774C18.5855 15.4921 18.0314 14.1492 18.0314 12.537V12.5282L18.0558 10.4556C18.0537 6.68564 15.28 3.75 12 3.75ZM4.54297 10.3474C4.54509 5.94111 7.81966 2.25 12 2.25C16.2363 2.25 19.5558 5.99198 19.5558 10.4599V10.4688L19.5314 12.5413C19.5325 13.875 20.0179 14.9904 20.5253 15.7539C20.8159 16.1912 20.7888 16.7128 20.6442 17.0852C20.504 17.4464 20.1336 17.9318 19.4933 17.9318H4.50764C3.85714 17.9318 3.48771 17.4319 3.351 17.069C3.20959 16.6935 3.18507 16.163 3.48915 15.7242C4.01887 14.9599 4.51856 13.8539 4.51856 12.537V12.5286L4.54297 10.3474ZM8.74737 19.6228C9.0059 19.2992 9.47783 19.2464 9.80146 19.5049C10.3744 19.9626 11.1433 20.25 12 20.25C12.8567 20.25 13.6256 19.9626 14.1986 19.5049C14.5222 19.2464 14.9941 19.2992 15.2527 19.6228C15.5112 19.9464 15.4584 20.4183 15.1348 20.6769C14.2924 21.3499 13.1922 21.75 12 21.75C10.8078 21.75 9.70765 21.3499 8.86523 20.6769C8.5416 20.4183 8.48883 19.9464 8.74737 19.6228Z" fill="black"/>
</svg>
