<svg width="24" height="24" viewBox="0 0 24 24" fill="none" xmlns="http://www.w3.org/2000/svg">
<g id="book_filled">
<g id="Union">
<path d="M22.6514 5.09714C22.6514 3.93892 21.7124 3 20.5542 3H16.3377C14.9086 3 13.538 3.56772 12.5275 4.57828L12.3257 4.78007V21.4571C12.5909 21.4571 12.8452 21.3518 13.0328 21.1643L14.4902 19.7068C15.1258 19.0712 15.9872 18.7143 16.8858 18.7143H20.5552C21.7145 18.7143 22.6514 17.7742 22.6514 16.6171V5.09714Z" fill="black"/>
<path d="M1 5.09714C1 3.93892 1.93892 3 3.09714 3H7.31362C8.74276 3 10.1134 3.56772 11.1239 4.57828L11.3257 4.78007V21.4571C11.0605 21.4571 10.8061 21.3518 10.6186 21.1643L9.16113 19.7068C8.52557 19.0712 7.66413 18.7143 6.76555 18.7143H3.09619C1.93683 18.7143 1 17.7742 1 16.6171V5.09714Z" fill="black"/>
</g>
</g>
</svg>
