<svg width="24" height="24" viewBox="0 0 24 24" fill="none" xmlns="http://www.w3.org/2000/svg">
<g id="cup">
<path id="Union" fill-rule="evenodd" clip-rule="evenodd" d="M12 1.25C10.172 1.25 8.661 1.411 7.498 1.607L7.364 1.63C6.354 1.799 5.514 1.94 4.857 2.748C4.437 3.267 4.3 3.828 4.269 4.453L3.777 4.617C3.314 4.771 2.907 4.907 2.586 5.057C2.238 5.219 1.919 5.427 1.675 5.766C1.431 6.104 1.334 6.473 1.29 6.854C1.25 7.207 1.25 7.634 1.25 8.123V8.268C1.25 8.67 1.25 9.025 1.28 9.322C1.312 9.643 1.383 9.956 1.56 10.258C1.739 10.561 1.977 10.775 2.243 10.959C2.488 11.129 2.798 11.302 3.15 11.497L5.79 12.964C6.33 14.025 7.071 14.971 8.09 15.654C8.977 16.25 10.042 16.624 11.303 16.723C11.2679 16.8111 11.2499 16.9051 11.25 17V18.75H9.82C9.41542 18.75 9.02334 18.8902 8.71047 19.1467C8.39761 19.4033 8.1833 19.7603 8.104 20.157L7.885 21.25H6C5.80109 21.25 5.61032 21.329 5.46967 21.4697C5.32902 21.6103 5.25 21.8011 5.25 22C5.25 22.1989 5.32902 22.3897 5.46967 22.5303C5.61032 22.671 5.80109 22.75 6 22.75H18C18.1989 22.75 18.3897 22.671 18.5303 22.5303C18.671 22.3897 18.75 22.1989 18.75 22C18.75 21.8011 18.671 21.6103 18.5303 21.4697C18.3897 21.329 18.1989 21.25 18 21.25H16.115L15.896 20.157C15.8167 19.7603 15.6024 19.4033 15.2895 19.1467C14.9767 18.8902 14.5846 18.75 14.18 18.75H12.75V17C12.7501 16.9051 12.7321 16.8111 12.697 16.723C13.958 16.623 15.023 16.25 15.91 15.655C16.93 14.971 17.67 14.025 18.21 12.964L20.85 11.497C21.202 11.302 21.512 11.129 21.757 10.959C22.022 10.775 22.261 10.561 22.439 10.259C22.617 9.956 22.689 9.643 22.72 9.322C22.75 9.025 22.75 8.67 22.75 8.268V8.123C22.75 7.635 22.75 7.207 22.71 6.854C22.666 6.473 22.57 6.104 22.325 5.766C22.081 5.427 21.762 5.219 21.415 5.056C21.092 4.906 20.686 4.771 20.223 4.617L19.731 4.453C19.701 3.827 19.564 3.267 19.143 2.748C18.487 1.939 17.647 1.798 16.637 1.63L16.502 1.607C15.0139 1.36305 13.508 1.24363 12 1.25ZM14.585 21.25L14.425 20.451C14.4137 20.3943 14.3831 20.3434 14.3384 20.3067C14.2938 20.2701 14.2378 20.25 14.18 20.25H9.82C9.76223 20.25 9.70625 20.2701 9.66158 20.3067C9.61692 20.3434 9.58632 20.3943 9.575 20.451L9.415 21.25H14.585ZM4.288 6.028L4.302 6.023C4.374 7.543 4.545 9.223 4.973 10.793L3.907 10.202C3.518 9.985 3.274 9.849 3.098 9.727C2.936 9.614 2.883 9.547 2.854 9.497C2.824 9.447 2.792 9.369 2.772 9.173C2.7508 8.86081 2.74346 8.54783 2.75 8.235V8.162C2.75 7.623 2.751 7.282 2.78 7.024C2.808 6.786 2.852 6.697 2.892 6.643C2.931 6.588 3.001 6.518 3.218 6.417C3.454 6.307 3.778 6.199 4.288 6.028ZM19.698 6.022C19.627 7.542 19.455 9.222 19.028 10.792L20.093 10.201C20.482 9.984 20.726 9.848 20.902 9.726C21.064 9.613 21.117 9.546 21.146 9.496C21.176 9.446 21.208 9.368 21.228 9.172C21.249 8.958 21.25 8.679 21.25 8.234V8.161C21.25 7.622 21.249 7.281 21.22 7.023C21.192 6.785 21.148 6.696 21.108 6.642C21.069 6.587 20.999 6.517 20.782 6.416C20.546 6.306 20.222 6.197 19.712 6.026L19.698 6.022ZM7.748 3.086C9.15353 2.85603 10.5758 2.74365 12 2.75C13.74 2.75 15.167 2.903 16.252 3.086C17.459 3.29 17.712 3.366 17.979 3.694C18.241 4.016 18.266 4.322 18.212 5.677C18.122 7.935 17.824 10.373 16.902 12.227C16.446 13.141 15.85 13.889 15.075 14.409C14.304 14.926 13.309 15.25 12 15.25C10.691 15.25 9.697 14.926 8.926 14.409C8.15 13.889 7.554 13.141 7.099 12.226C6.176 10.373 5.879 7.936 5.789 5.676C5.735 4.322 5.759 4.016 6.022 3.694C6.288 3.366 6.541 3.29 7.748 3.086Z" fill="black"/>
</g>
</svg>
