<svg width="24" height="24" viewBox="0 0 24 24" fill="none" xmlns="http://www.w3.org/2000/svg">
<g id="cup-filled">
<path id="Union" fill-rule="evenodd" clip-rule="evenodd" d="M12 2C13.4661 1.9938 14.9302 2.10987 16.377 2.347C17.516 2.539 18.085 2.635 18.561 3.221C19.0361 3.80487 19.0111 4.43756 18.9613 5.69871L18.961 5.706C18.789 10.055 17.85 15.486 12.75 15.966V19.5H14.18C14.4111 19.5001 14.635 19.5803 14.8137 19.7269C14.9923 19.8735 15.1147 20.0774 15.16 20.304L15.35 21.25H18C18.1989 21.25 18.3897 21.329 18.5303 21.4697C18.671 21.6103 18.75 21.8011 18.75 22C18.75 22.1989 18.671 22.3897 18.5303 22.5303C18.3897 22.671 18.1989 22.75 18 22.75H6C5.80109 22.75 5.61032 22.671 5.46967 22.5303C5.32902 22.3897 5.25 22.1989 5.25 22C5.25 21.8011 5.32902 21.6103 5.46967 21.4697C5.61032 21.329 5.80109 21.25 6 21.25H8.65L8.84 20.304C8.88529 20.0774 9.00767 19.8735 9.18633 19.7269C9.36499 19.5803 9.58891 19.5001 9.82 19.5H11.25V15.966C6.15 15.486 5.212 10.054 5.039 5.706C4.989 4.44 4.964 3.807 5.439 3.221C5.915 2.635 6.484 2.539 7.623 2.347C8.747 2.157 10.217 2 12 2ZM22 8.235V8.162C22 7.119 22 6.597 21.717 6.204C21.489 5.888 21 5.5 20.175 5.493L20.173 5.545L20.163 5.766C20.096 7.464 19.913 9.45 19.367 11.298L20.457 10.858L20.467 10.8524C21.2123 10.4371 21.5869 10.2284 21.793 9.878C22 9.526 22 9.095 22 8.235ZM2 8.235V8.162C2 7.12 2 6.597 2.283 6.204C2.511 5.888 3.12935 5.5 3.82135 5.493L3.82235 5.545L3.83235 5.766C3.89935 7.464 4.08235 9.45 4.62935 11.298L3.543 10.858L3.53301 10.8524C2.78766 10.4371 2.41308 10.2284 2.207 9.878C2 9.526 2 9.095 2 8.235Z" fill="black"/>
</g>
</svg>
