<svg width="24" height="24" viewBox="0 0 24 24" fill="none" xmlns="http://www.w3.org/2000/svg">
<g id="emoji_filled">
<path id="Union" d="M13.9908 6.03623C14.4105 6.17576 14.7919 6.41144 15.1044 6.72448C15.4169 7.03751 15.6519 7.41925 15.7908 7.83923L16.2388 9.21623C16.2753 9.31921 16.342 9.4088 16.4302 9.47333C16.5184 9.53786 16.624 9.57434 16.7332 9.57801C16.8424 9.58168 16.9502 9.55237 17.0425 9.4939C17.1348 9.43544 17.2074 9.35053 17.2508 9.25023L17.2518 9.24723L17.2638 9.22623L17.3128 9.07523L17.3118 9.07023L17.7118 7.84023C17.8398 7.45523 18.0478 7.10323 18.3228 6.80723L18.3358 6.80023C18.5333 6.5907 18.7612 6.41204 19.0118 6.27023L19.0078 6.26523C19.1678 6.17523 19.3348 6.10123 19.5098 6.04323L20.8878 5.59523C20.9936 5.55757 21.0851 5.48809 21.1499 5.39633C21.2146 5.30457 21.2494 5.19502 21.2494 5.08273C21.2494 4.97043 21.2146 4.86088 21.1499 4.76912C21.0851 4.67736 20.9936 4.60788 20.8878 4.57023L20.8598 4.56323L19.4818 4.11523C19.0632 3.97606 18.6828 3.7413 18.3707 3.42956C18.0586 3.11782 17.8234 2.73766 17.6838 2.31923L17.2378 0.942227C17.2005 0.83574 17.1311 0.743466 17.0391 0.678179C16.9471 0.612891 16.8371 0.57782 16.7243 0.57782C16.6115 0.57782 16.5014 0.612891 16.4094 0.678179C16.3174 0.743466 16.248 0.83574 16.2108 0.942227L15.7628 2.31923L15.7518 2.35323C15.6116 2.76115 15.3802 3.13171 15.0753 3.4367C14.7703 3.7417 14.3997 3.97308 13.9918 4.11323L12.6148 4.56123C12.5078 4.598 12.415 4.66724 12.3493 4.7593C12.2836 4.85136 12.2483 4.96163 12.2483 5.07473C12.2483 5.18782 12.2836 5.2981 12.3493 5.39015C12.415 5.48221 12.5078 5.55146 12.6148 5.58823L13.9908 6.03623ZM23.0338 10.7922L22.2678 10.5442C22.0352 10.4667 21.824 10.3361 21.6507 10.1627C21.4775 9.98926 21.347 9.77785 21.2698 9.54523L21.0198 8.78123C20.9991 8.72216 20.9605 8.67098 20.9095 8.63478C20.8584 8.59857 20.7974 8.57912 20.7348 8.57912C20.6722 8.57912 20.6111 8.59857 20.5601 8.63478C20.509 8.67098 20.4705 8.72216 20.4498 8.78123L20.2018 9.54523C20.126 9.77639 19.9977 9.98688 19.827 10.1602C19.6563 10.3335 19.4478 10.465 19.2178 10.5442L19.1218 10.5742H19.1178L18.4508 10.7912C18.3914 10.8117 18.34 10.8504 18.3037 10.9017C18.2675 10.953 18.2483 11.0144 18.2488 11.0772C18.2486 11.1401 18.2682 11.2015 18.3048 11.2526C18.3414 11.3038 18.3932 11.3421 18.4528 11.3622L19.2158 11.6102C19.5577 11.7235 19.8506 11.9504 20.0458 12.2532C20.1158 12.3632 20.1738 12.4832 20.2158 12.6102L20.4648 13.3752C20.4851 13.4354 20.5239 13.4876 20.5758 13.5242C20.614 13.5513 20.658 13.5692 20.7043 13.5764C20.7505 13.5836 20.7979 13.5799 20.8425 13.5656C20.8871 13.5514 20.9278 13.5269 20.9614 13.4942C20.9949 13.4615 21.0204 13.4215 21.0358 13.3772L21.2848 12.6132C21.3621 12.3805 21.4926 12.1689 21.6661 11.9955C21.8395 11.8221 22.051 11.6915 22.2838 11.6142L23.0488 11.3662C23.1078 11.3455 23.159 11.307 23.1952 11.2559C23.2314 11.2049 23.2509 11.1438 23.2509 11.0812C23.2509 11.0186 23.2314 10.9576 23.1952 10.9065C23.159 10.8555 23.1078 10.8169 23.0488 10.7962L23.0338 10.7922ZM11.2508 22.5802C16.1008 22.5802 20.1458 19.1272 21.0588 14.5442C20.7408 14.6224 20.405 14.5776 20.1186 14.4189C19.8322 14.2602 19.6162 13.9993 19.5138 13.6882L19.2658 12.9262C19.2382 12.8422 19.1915 12.7657 19.1294 12.7027C19.0673 12.6397 18.9914 12.592 18.9078 12.5632L18.1178 12.3062C17.9372 12.2426 17.773 12.1399 17.6367 12.0054C17.5004 11.871 17.3955 11.7081 17.3294 11.5285C17.2633 11.3488 17.2377 11.1568 17.2544 10.9661C17.271 10.7754 17.3295 10.5907 17.4258 10.4252C17.2281 10.521 17.0123 10.5736 16.7927 10.5794C16.5731 10.5852 16.3548 10.5442 16.1523 10.459C15.9498 10.3739 15.7678 10.2466 15.6184 10.0855C15.469 9.92452 15.3556 9.73351 15.2858 9.52523L14.8388 8.15223C14.75 7.88033 14.5982 7.63327 14.3958 7.43123C14.1952 7.23019 13.9508 7.07824 13.6818 6.98723L12.2818 6.53223C11.9786 6.42525 11.7163 6.22627 11.5316 5.96307C11.3469 5.69986 11.249 5.38556 11.2515 5.06402C11.254 4.74249 11.3569 4.42976 11.5457 4.1695C11.7345 3.90923 11.9999 3.71441 12.3048 3.61223L13.6648 3.17023C13.8048 3.12223 13.9378 3.05723 14.0618 2.97823C13.1486 2.71178 12.202 2.57709 11.2508 2.57823C5.72678 2.57723 1.24878 7.05523 1.24878 12.5782C1.24878 18.1022 5.72678 22.5802 11.2508 22.5802ZM6.65878 15.2372C6.81501 15.1142 7.0137 15.0583 7.21116 15.0817C7.40862 15.1052 7.58869 15.2061 7.71178 15.3622C8.13278 15.8981 8.6702 16.3312 9.28335 16.6287C9.89649 16.9262 10.5693 17.0802 11.2508 17.0792C11.9312 17.0799 12.6029 16.926 13.2151 16.629C13.8273 16.3321 14.364 15.9 14.7848 15.3652C14.8458 15.2879 14.9215 15.2233 15.0076 15.1752C15.0936 15.1271 15.1882 15.0965 15.2861 15.0849C15.384 15.0734 15.4832 15.0813 15.578 15.1081C15.6728 15.1349 15.7614 15.1802 15.8388 15.2412C15.9161 15.3023 15.9807 15.378 16.0288 15.464C16.0769 15.55 16.1076 15.6447 16.1191 15.7425C16.1306 15.8404 16.1227 15.9396 16.0959 16.0344C16.0691 16.1293 16.0238 16.2179 15.9628 16.2952C15.4015 17.0078 14.6858 17.5836 13.8695 17.9793C13.0533 18.3749 12.1579 18.5801 11.2508 18.5792C10.3424 18.5801 9.44564 18.3744 8.62844 17.9777C7.81124 17.5809 7.09496 17.0036 6.53378 16.2892C6.41077 16.133 6.35483 15.9343 6.37827 15.7368C6.40171 15.5394 6.50261 15.3593 6.65878 15.2362M7.00178 10.5792C6.99505 10.411 7.02237 10.2431 7.0821 10.0857C7.14183 9.92833 7.23275 9.78461 7.34939 9.66321C7.46604 9.5418 7.60601 9.44521 7.7609 9.37923C7.91579 9.31325 8.08242 9.27924 8.25078 9.27924C8.41914 9.27924 8.58577 9.31325 8.74066 9.37923C8.89555 9.44521 9.03552 9.5418 9.15216 9.66321C9.26881 9.78461 9.35972 9.92833 9.41946 10.0857C9.47919 10.2431 9.50651 10.411 9.49978 10.5792C9.48687 10.9018 9.34963 11.2069 9.11681 11.4306C8.88399 11.6543 8.57364 11.7792 8.25078 11.7792C7.92791 11.7792 7.61757 11.6543 7.38475 11.4306C7.15193 11.2069 7.01469 10.9018 7.00178 10.5792ZM13.0018 10.5792C12.995 10.411 13.0224 10.2431 13.0821 10.0857C13.1418 9.92833 13.2328 9.78461 13.3494 9.66321C13.466 9.5418 13.606 9.44521 13.7609 9.37923C13.9158 9.31325 14.0824 9.27924 14.2508 9.27924C14.4191 9.27924 14.5858 9.31325 14.7407 9.37923C14.8956 9.44521 15.0355 9.5418 15.1522 9.66321C15.2688 9.78461 15.3597 9.92833 15.4195 10.0857C15.4792 10.2431 15.5065 10.411 15.4998 10.5792C15.4869 10.9018 15.3496 11.2069 15.1168 11.4306C14.884 11.6543 14.5736 11.7792 14.2508 11.7792C13.9279 11.7792 13.6176 11.6543 13.3848 11.4306C13.1519 11.2069 13.0147 10.9018 13.0018 10.5792Z" fill="black"/>
</g>
</svg>
