<svg width="40" height="40" viewBox="0 0 40 40" fill="none" xmlns="http://www.w3.org/2000/svg">
<path fill-rule="evenodd" clip-rule="evenodd" d="M0 20C0 8.95431 8.95431 0 20 0C31.0457 0 40 8.95431 40 20C40 31.0457 31.0457 40 20 40C8.95431 40 0 31.0457 0 20ZM20 10C25.5 10 30 14.5 30 20C30 25 26.375 29.25 21.375 30V22.875H23.75L24.25 20H21.5V18.125C21.5 17.375 21.875 16.625 23.125 16.625H24.375V14.125C24.375 14.125 23.25 13.875 22.125 13.875C19.875 13.875 18.375 15.25 18.375 17.75V20H15.875V22.875H18.375V29.875C13.625 29.125 10 25 10 20C10 14.5 14.5 10 20 10Z" fill="white"/>
<path d="M39.6407 1.69002L38.2607 2.47002V2.31002L39.6407 3.09002L39.4107 3.51002L38.0507 2.72002L38.1607 2.67002V4.20002H37.7007L37.7107 2.67002L37.8107 2.72002L36.4607 3.51002L36.2207 3.09002L37.6107 2.31002V2.47002L36.2207 1.69002L36.4607 1.27002L37.8107 2.06002L37.7107 2.11002L37.7007 0.580017H38.1607V2.11002L38.0507 2.06002L39.4107 1.27002L39.6407 1.69002Z" fill="white"/>
</svg>
