<svg width="24" height="24" viewBox="0 0 24 24" fill="none" xmlns="http://www.w3.org/2000/svg">
<g id="gift_filled">
<g id="Union">
<path fill-rule="evenodd" clip-rule="evenodd" d="M17.2063 3.29288C16.085 2.17154 14.2618 2.18115 13.1434 3.29955C12.8695 3.57348 12.6634 3.94488 12.5126 4.26153C12.3513 4.60016 12.2064 4.97863 12.0826 5.33901C12.038 5.4686 11.9954 5.59809 11.955 5.72526C11.914 5.59658 11.8708 5.46555 11.8255 5.33448C11.7012 4.97389 11.5562 4.59567 11.3957 4.25812C11.2462 3.94363 11.0411 3.57208 10.7686 3.29959C9.65033 2.18129 7.82716 2.1715 6.70572 3.29293C5.58438 4.41428 5.59399 6.23745 6.71239 7.35585C6.83751 7.48097 6.98297 7.59194 7.13425 7.68994H3.09857C2.71298 7.68994 2.40039 8.00253 2.40039 8.38812V11.3018C2.40039 11.6874 2.71298 12 3.09857 12H20.9022C21.2878 12 21.6004 11.6874 21.6004 11.3018L21.6004 8.38812C21.6004 8.00253 21.2878 7.68994 20.9022 7.68994H16.7763C16.9282 7.59204 17.0744 7.48104 17.1997 7.3558C18.318 6.23749 18.3278 4.41432 17.2063 3.29288ZM14.5576 4.71376C14.9016 4.36973 15.4585 4.37346 15.7921 4.7071C16.1258 5.04075 16.1295 5.59758 15.7854 5.94159C15.7854 5.94159 15.777 5.94953 15.7599 5.96253C15.7405 5.97725 15.7133 5.99626 15.6767 6.0191C15.6024 6.06547 15.5045 6.11853 15.3824 6.17657C15.1372 6.29316 14.8352 6.41076 14.5126 6.52202C14.2443 6.61457 13.9737 6.69866 13.7277 6.77059C13.7989 6.5255 13.8821 6.25629 13.9739 5.98922C14.0845 5.66765 14.2016 5.36651 14.3183 5.12146C14.3764 4.99948 14.4297 4.90132 14.4765 4.82658C14.4996 4.78974 14.519 4.76202 14.5342 4.74206C14.5492 4.72245 14.5576 4.71376 14.5576 4.71376ZM8.11994 4.70715C8.45359 4.37349 9.01042 4.3698 9.35443 4.71381C9.35443 4.71381 9.36152 4.72118 9.37537 4.73939C9.39009 4.75874 9.4091 4.786 9.43195 4.82258C9.47831 4.89681 9.53137 4.99476 9.58941 5.11685C9.706 5.36208 9.8236 5.66408 9.93486 5.98663C10.0274 6.25495 10.1115 6.52553 10.1834 6.77159C9.93835 6.70038 9.66913 6.61716 9.40206 6.52534C9.08049 6.41479 8.77935 6.29766 8.5343 6.18096C8.41233 6.12287 8.31417 6.06956 8.23942 6.02272C8.20258 5.99964 8.17486 5.98026 8.15491 5.96503C8.1353 5.95007 8.12661 5.94165 8.12661 5.94165C7.78258 5.59762 7.7863 5.04078 8.11994 4.70715Z" fill="black"/>
<path d="M4.14585 20.9554L4.14584 15C4.14584 14.4477 4.59356 14 5.14585 14H10C10.5523 14 11 14.4477 11 15V20.6536C11 21.2059 10.5523 21.6536 10 21.6536H4.84403C4.45843 21.6536 4.14585 21.341 4.14585 20.9554Z" fill="black"/>
<path d="M19.1568 21.6536H14C13.4477 21.6536 13 21.2059 13 20.6536V15C13 14.4477 13.4477 14 14 14H18.8549C19.4072 14 19.8549 14.4477 19.8549 15L19.8549 20.9554C19.8549 21.341 19.5424 21.6536 19.1568 21.6536Z" fill="black"/>
</g>
</g>
</svg>
