<svg width="24" height="24" viewBox="0 0 24 24" fill="none" xmlns="http://www.w3.org/2000/svg">
<g id="graduation_filled">
<path id="Union" fill-rule="evenodd" clip-rule="evenodd" d="M10.9161 1.56631C11.5469 1.19038 12.333 1.19038 12.9638 1.56631L22.5478 7.27777C23.2492 7.6958 23.4466 8.54344 23.1399 9.20324V13.9497C23.1399 14.502 22.6922 14.9497 22.1399 14.9497C21.5876 14.9497 21.1399 14.502 21.1399 13.9497V10.6938L12.9638 15.5663C12.333 15.9422 11.5469 15.9422 10.9161 15.5663L1.33208 9.85486C0.355943 9.27314 0.355937 7.8595 1.33208 7.27777L10.9161 1.56631ZM5.00543 13.7881C5.32129 13.6113 5.70805 13.6189 6.01665 13.8082L10.5254 16.4776C10.5254 16.4776 11.4582 17.1045 11.9582 17.1045C12.4582 17.1045 13.4806 16.4776 13.4806 16.4776L18.3659 13.5918C18.6749 13.4072 19.0593 13.4029 19.3724 13.5805C19.6854 13.7582 19.8789 14.0903 19.8789 14.4503V17.3928C19.8789 18.1003 19.505 18.7552 18.8958 19.115L13.5038 22.2989C12.5323 22.8725 11.3212 22.8527 10.3691 22.2475L5.42105 19.1022C4.84366 18.7352 4.49395 18.0985 4.49395 17.4143V14.6607C4.49395 14.2987 4.68958 13.965 5.00543 13.7881Z" fill="black"/>
</g>
</svg>
