<svg xmlns="http://www.w3.org/2000/svg" width="24" height="24" viewBox="0 0 24 24" fill="none">
<path d="M11.95 20.95C11.75 20.95 11.56 20.87 11.42 20.73L3.22998 12.53C2.17998 11.48 1.59998 10.09 1.59998 8.61C1.59998 7.13 2.17998 5.73 3.22998 4.69C4.26998 3.64 5.66998 3.06 7.14998 3.06C8.62998 3.06 10.03 3.64 11.07 4.68L11.95 5.56L12.83 4.68C13.34 4.16 13.94 3.74 14.62 3.45C15.3 3.16 16.02 3.01 16.76 3C17.5 3 18.22 3.13 18.91 3.41C19.6 3.69 20.21 4.1 20.73 4.62C21.25 5.14 21.66 5.76 21.94 6.44C22.22 7.12 22.36 7.85 22.35 8.59C22.35 9.33 22.19 10.05 21.9 10.73C21.61 11.41 21.19 12.02 20.65 12.53L12.47 20.72C12.33 20.86 12.14 20.94 11.94 20.94L11.95 20.95ZM4.28998 5.75C3.52998 6.52 3.09998 7.53 3.09998 8.61C3.09998 9.69 3.51998 10.71 4.28998 11.47L11.95 19.13L19.61 11.47C20.01 11.09 20.31 10.64 20.53 10.15C20.74 9.65 20.85 9.13 20.86 8.59C20.86 8.05 20.76 7.52 20.56 7.02C20.36 6.52 20.06 6.07 19.68 5.69C19.3 5.31 18.85 5.01 18.35 4.81C17.85 4.61 17.33 4.51 16.78 4.51C16.24 4.51 15.71 4.63 15.22 4.84C14.72 5.05 14.28 5.36 13.9 5.75L12.48 7.16C12.19 7.45 11.71 7.45 11.42 7.16L10.01 5.75C9.23998 4.99 8.22998 4.56 7.14998 4.56C6.06998 4.56 5.04998 4.98 4.28998 5.75Z" fill="black"/>
</svg>