<svg width="24" height="24" viewBox="0 0 24 24" fill="none" xmlns="http://www.w3.org/2000/svg">
<g id="play_outline">
<path id="Union" fill-rule="evenodd" clip-rule="evenodd" d="M2.25 12C2.25 6.61522 6.61522 2.25 12 2.25C17.3848 2.25 21.75 6.61522 21.75 12C21.75 17.3848 17.3848 21.75 12 21.75C6.61522 21.75 2.25 17.3848 2.25 12ZM12 3.75C7.44365 3.75 3.75 7.44365 3.75 12C3.75 16.5563 7.44365 20.25 12 20.25C16.5563 20.25 20.25 16.5563 20.25 12C20.25 7.44365 16.5563 3.75 12 3.75ZM9.13794 6.87312C9.64787 6.63503 10.1984 6.7701 10.605 7.02764L10.6272 7.0417L15.7884 10.8422C16.1818 11.0786 16.6186 11.483 16.6194 12.0941C16.6202 12.7027 16.1839 13.1242 15.7947 13.3801L10.6627 16.9694L10.6283 16.9885C10.2297 17.209 9.66038 17.389 9.12631 17.1037C8.5845 16.8144 8.4211 16.2312 8.39266 15.7536L8.3914 15.7324L8.36968 8.23785C8.36049 7.6842 8.58903 7.12942 9.13794 6.87312ZM9.87 8.34692L14.9631 12.0972L14.9908 12.1132C14.9826 12.1188 14.9741 12.1245 14.9652 12.1303L14.9547 12.1371L9.89125 15.6785L9.87 8.34692Z" fill="black"/>
</g>
</svg>
