<svg width="24" height="24" viewBox="0 0 24 24" fill="none" xmlns="http://www.w3.org/2000/svg">
<g id="search_outline">
<g id="Union">
<path fill-rule="evenodd" clip-rule="evenodd" d="M16.433 3.07777C12.3259 2.42299 8.46568 5.22165 7.81091 9.32875C7.15613 13.4358 9.95479 17.2961 14.0619 17.9509C15.7662 18.2226 17.4279 17.8996 18.8358 17.1353L21.9614 21.5942C22.2467 22.0012 22.8079 22.0999 23.2149 21.8146C23.622 21.5293 23.7206 20.968 23.4353 20.561L20.3045 16.0945C21.532 14.9835 22.4031 13.4622 22.684 11.6999C23.3388 7.5928 20.5401 3.73254 16.433 3.07777ZM9.58846 9.61213C10.0867 6.48675 13.0243 4.35705 16.1497 4.85532C19.275 5.35358 21.4047 8.29113 20.9065 11.4165C20.4082 14.5419 17.4707 16.6716 14.3453 16.1733C11.2199 15.6751 9.09019 12.7375 9.58846 9.61213Z" fill="black"/>
<path d="M1.572 3.51992C1.07494 3.51992 0.671997 3.92287 0.671997 4.41992C0.671997 4.91698 1.07494 5.31992 1.572 5.31992H6.54514C7.0422 5.31992 7.44514 4.91698 7.44514 4.41992C7.44514 3.92287 7.0422 3.51992 6.54514 3.51992H1.572Z" fill="black"/>
<path d="M0.671997 10.3613C0.671997 9.86427 1.07494 9.46133 1.572 9.46133H4.88743C5.38448 9.46133 5.78743 9.86427 5.78743 10.3613C5.78743 10.8584 5.38448 11.2613 4.88743 11.2613H1.572C1.07494 11.2613 0.671997 10.8584 0.671997 10.3613Z" fill="black"/>
<path d="M1.572 15.4027C1.07494 15.4027 0.671997 15.8057 0.671997 16.3027C0.671997 16.7998 1.07494 17.2027 1.572 17.2027H6.54514C7.0422 17.2027 7.44514 16.7998 7.44514 16.3027C7.44514 15.8057 7.0422 15.4027 6.54514 15.4027H1.572Z" fill="black"/>
</g>
</g>
</svg>
