<svg width="24" height="24" viewBox="0 0 24 24" fill="none" xmlns="http://www.w3.org/2000/svg">
<g id="subscriptions_filled">
<path id="Union" d="M4 22C3.45 22 2.97933 21.8043 2.588 21.413C2.19667 21.0217 2.00067 20.5507 2 20V10C2 9.45 2.196 8.97933 2.588 8.588C2.98 8.19667 3.45067 8.00067 4 8H20C20.55 8 21.021 8.196 21.413 8.588C21.805 8.98 22.0007 9.45067 22 10V20C22 20.55 21.8043 21.021 21.413 21.413C21.0217 21.805 20.5507 22.0007 20 22H4ZM10.775 18.475L15.375 15.425C15.525 15.325 15.6 15.1833 15.6 15C15.6 14.8167 15.525 14.675 15.375 14.575L10.775 11.525C10.6083 11.4083 10.4373 11.3957 10.262 11.487C10.0867 11.5783 9.99933 11.7243 10 11.925V18.075C10 18.275 10.0877 18.421 10.263 18.513C10.4383 18.605 10.609 18.5923 10.775 18.475ZM5 7C4.71667 7 4.47933 6.904 4.288 6.712C4.09667 6.52 4.00067 6.28267 4 6C4 5.71667 4.096 5.47933 4.288 5.288C4.48 5.09667 4.71733 5.00067 5 5H19C19.2833 5 19.521 5.096 19.713 5.288C19.905 5.48 20.0007 5.71733 20 6C20 6.28333 19.904 6.521 19.712 6.713C19.52 6.905 19.2827 7.00067 19 7H5ZM8 4C7.71667 4 7.47933 3.904 7.288 3.712C7.09667 3.52 7.00067 3.28267 7 3C7 2.71667 7.096 2.47933 7.288 2.288C7.48 2.09667 7.71733 2.00067 8 2H16C16.2833 2 16.521 2.096 16.713 2.288C16.905 2.48 17.0007 2.71733 17 3C17 3.28333 16.904 3.521 16.712 3.713C16.52 3.905 16.2827 4.00067 16 4H8Z" fill="black"/>
</g>
</svg>
