<svg width="24" height="24" viewBox="0 0 24 24" fill="none" xmlns="http://www.w3.org/2000/svg">
<path d="M10.54 18.2L15.14 15.15C15.25 15.08 15.3 14.98 15.3 14.85C15.3 14.72 15.25 14.62 15.14 14.55L10.54 11.5C10.47 11.45 10.4 11.43 10.34 11.43C10.29 11.43 10.24 11.44 10.18 11.47C10.05 11.54 10 11.63 10 11.77V17.92C10 18.06 10.06 18.16 10.18 18.22C10.3 18.29 10.41 18.28 10.53 18.19L10.54 18.2Z" fill="#AAAAAA"/>
<path d="M15.85 2H7.85C7.61 2 7.41 2.08 7.24 2.24C7.08 2.4 7 2.6 7 2.85C7 3.09 7.08 3.29 7.24 3.46C7.4 3.62 7.6 3.7 7.85 3.7H15.85C16.09 3.69 16.29 3.62 16.46 3.46C16.62 3.3 16.7 3.1 16.7 2.85C16.7 2.61 16.62 2.41 16.46 2.24C16.3 2.08 16.1 2 15.85 2Z" fill="#AAAAAA"/>
<path d="M18.85 5H4.85C4.61 5 4.41 5.08 4.24 5.24C4.08 5.4 4 5.6 4 5.85C4 6.09 4.08 6.29 4.24 6.46C4.4 6.62 4.6 6.7 4.85 6.7H18.85C19.09 6.7 19.29 6.62 19.45 6.46C19.61 6.3 19.69 6.1 19.69 5.85C19.69 5.61 19.61 5.41 19.45 5.24C19.29 5.08 19.09 5 18.84 5H18.85Z" fill="#AAAAAA"/>
<path d="M2 19.85C2 20.36 2.18 20.79 2.54 21.16C2.91 21.53 3.33 21.7 3.85 21.7H19.85C20.36 21.7 20.79 21.52 21.15 21.16C21.52 20.79 21.69 20.37 21.69 19.85V9.85C21.69 9.34 21.51 8.91 21.15 8.54C20.78 8.17 20.36 8 19.84 8H3.85C3.34 8 2.91 8.18 2.54 8.54C2.17 8.91 2 9.33 2 9.85V19.85ZM3.7 10.21C3.7 9.93 3.93 9.7 4.21 9.7H19.48C19.76 9.7 19.99 9.93 19.99 10.21V19.48C19.99 19.76 19.76 19.99 19.48 19.99H4.21C3.93 19.99 3.7 19.76 3.7 19.48V10.21Z" fill="#AAAAAA"/>
</svg>
