<?xml version="1.0" encoding="UTF-8" standalone="no"?><svg xmlns="http://www.w3.org/2000/svg" xmlns:xlink="http://www.w3.org/1999/xlink"><symbol id="arrow-right" width="24" height="24" viewBox="0 0 24 24" xmlns="http://www.w3.org/2000/svg"><path fill-rule="evenodd" clip-rule="evenodd" d="M16 12C16 12.1989 15.921 12.3897 15.7803 12.5303L10.7803 17.5303C10.4874 17.8232 10.0126 17.8232 9.71967 17.5303C9.42678 17.2374 9.42678 16.7626 9.71967 16.4697L14.1893 12L9.71967 7.53033C9.42678 7.23744 9.42678 6.76256 9.71967 6.46967C10.0126 6.17678 10.4874 6.17678 10.7803 6.46967L15.7803 11.4697C15.921 11.6103 16 11.8011 16 12Z"></path></symbol><symbol id="book-filled" width="24" height="24" viewBox="0 0 24 24" xmlns="http://www.w3.org/2000/svg"><g><g><path d="M22.6514 5.09714C22.6514 3.93892 21.7124 3 20.5542 3H16.3377C14.9086 3 13.538 3.56772 12.5275 4.57828L12.3257 4.78007V21.4571C12.5909 21.4571 12.8452 21.3518 13.0328 21.1643L14.4902 19.7068C15.1258 19.0712 15.9872 18.7143 16.8858 18.7143H20.5552C21.7145 18.7143 22.6514 17.7742 22.6514 16.6171V5.09714Z"></path><path d="M1 5.09714C1 3.93892 1.93892 3 3.09714 3H7.31362C8.74276 3 10.1134 3.56772 11.1239 4.57828L11.3257 4.78007V21.4571C11.0605 21.4571 10.8061 21.3518 10.6186 21.1643L9.16113 19.7068C8.52557 19.0712 7.66413 18.7143 6.76555 18.7143H3.09619C1.93683 18.7143 1 17.7742 1 16.6171V5.09714Z"></path></g></g></symbol><symbol id="book-outline" width="24" height="24" viewBox="0 0 24 24" xmlns="http://www.w3.org/2000/svg"><g><path fill-rule="evenodd" clip-rule="evenodd" d="M1.65002 4.86857C1.65002 3.84842 2.47702 3.02142 3.49717 3.02142H7.71365C9.07648 3.02142 10.3835 3.56281 11.3472 4.52648L11.5172 4.69651C11.5834 4.67739 11.6534 4.66714 11.7257 4.66714C11.7981 4.66714 11.8681 4.67739 11.9343 4.69651L12.1043 4.52648C13.068 3.56281 14.375 3.02142 15.7378 3.02142H20.5029C21.523 3.02142 22.35 3.84842 22.35 4.86857V16.3886C22.35 17.4087 21.523 18.2357 20.5029 18.2357H16.2864C15.3214 18.2357 14.3959 18.6191 13.7135 19.3014L12.2561 20.7589C12.1154 20.8995 11.9247 20.9786 11.7257 20.9786C11.5268 20.9786 11.3361 20.8995 11.1954 20.7589L9.73793 19.3014C9.0555 18.619 8.13049 18.2357 7.16557 18.2357H3.49621C2.47521 18.2357 1.65002 17.4079 1.65002 16.3886V4.86857ZM10.9757 6.27637L10.2865 5.58714C9.60414 4.90477 8.67866 4.52142 7.71365 4.52142H3.49717C3.30545 4.52142 3.15002 4.67684 3.15002 4.86857V16.3886C3.15002 16.5811 3.30534 16.7357 3.49621 16.7357H7.16557C8.5285 16.7357 9.83499 17.2772 10.7986 18.2408L10.9757 18.4179V6.27637ZM12.4757 18.4179L12.6529 18.2408C13.6166 17.2771 14.9236 16.7357 16.2864 16.7357H20.5029C20.6946 16.7357 20.85 16.5803 20.85 16.3886V4.86857C20.85 4.67684 20.6946 4.52142 20.5029 4.52142H15.7378C14.7728 4.52142 13.8473 4.90477 13.165 5.58714L12.4757 6.27637V18.4179Z"></path></g></symbol><symbol id="bell" width="24" height="24" viewBox="0 0 24 24" xmlns="http://www.w3.org/2000/svg"><path fill-rule="evenodd" clip-rule="evenodd" d="M12 3.75C8.77332 3.75 6.04297 6.6394 6.04297 10.3517V10.36L6.01856 12.5413C6.01753 14.1527 5.43878 15.4935 4.82122 16.4318H19.1774C18.5855 15.4921 18.0314 14.1492 18.0314 12.537V12.5282L18.0558 10.4556C18.0537 6.68564 15.28 3.75 12 3.75ZM4.54297 10.3474C4.54509 5.94111 7.81966 2.25 12 2.25C16.2363 2.25 19.5558 5.99198 19.5558 10.4599V10.4688L19.5314 12.5413C19.5325 13.875 20.0179 14.9904 20.5253 15.7539C20.8159 16.1912 20.7888 16.7128 20.6442 17.0852C20.504 17.4464 20.1336 17.9318 19.4933 17.9318H4.50764C3.85714 17.9318 3.48771 17.4319 3.351 17.069C3.20959 16.6935 3.18507 16.163 3.48915 15.7242C4.01887 14.9599 4.51856 13.8539 4.51856 12.537V12.5286L4.54297 10.3474ZM8.74737 19.6228C9.0059 19.2992 9.47783 19.2464 9.80146 19.5049C10.3744 19.9626 11.1433 20.25 12 20.25C12.8567 20.25 13.6256 19.9626 14.1986 19.5049C14.5222 19.2464 14.9941 19.2992 15.2527 19.6228C15.5112 19.9464 15.4584 20.4183 15.1348 20.6769C14.2924 21.3499 13.1922 21.75 12 21.75C10.8078 21.75 9.70765 21.3499 8.86523 20.6769C8.5416 20.4183 8.48883 19.9464 8.74737 19.6228Z"></path></symbol><symbol id="cup-outline" width="24" height="24" viewBox="0 0 24 24" xmlns="http://www.w3.org/2000/svg"><g><path fill-rule="evenodd" clip-rule="evenodd" d="M12 1.25C10.172 1.25 8.661 1.411 7.498 1.607L7.364 1.63C6.354 1.799 5.514 1.94 4.857 2.748C4.437 3.267 4.3 3.828 4.269 4.453L3.777 4.617C3.314 4.771 2.907 4.907 2.586 5.057C2.238 5.219 1.919 5.427 1.675 5.766C1.431 6.104 1.334 6.473 1.29 6.854C1.25 7.207 1.25 7.634 1.25 8.123V8.268C1.25 8.67 1.25 9.025 1.28 9.322C1.312 9.643 1.383 9.956 1.56 10.258C1.739 10.561 1.977 10.775 2.243 10.959C2.488 11.129 2.798 11.302 3.15 11.497L5.79 12.964C6.33 14.025 7.071 14.971 8.09 15.654C8.977 16.25 10.042 16.624 11.303 16.723C11.2679 16.8111 11.2499 16.9051 11.25 17V18.75H9.82C9.41542 18.75 9.02334 18.8902 8.71047 19.1467C8.39761 19.4033 8.1833 19.7603 8.104 20.157L7.885 21.25H6C5.80109 21.25 5.61032 21.329 5.46967 21.4697C5.32902 21.6103 5.25 21.8011 5.25 22C5.25 22.1989 5.32902 22.3897 5.46967 22.5303C5.61032 22.671 5.80109 22.75 6 22.75H18C18.1989 22.75 18.3897 22.671 18.5303 22.5303C18.671 22.3897 18.75 22.1989 18.75 22C18.75 21.8011 18.671 21.6103 18.5303 21.4697C18.3897 21.329 18.1989 21.25 18 21.25H16.115L15.896 20.157C15.8167 19.7603 15.6024 19.4033 15.2895 19.1467C14.9767 18.8902 14.5846 18.75 14.18 18.75H12.75V17C12.7501 16.9051 12.7321 16.8111 12.697 16.723C13.958 16.623 15.023 16.25 15.91 15.655C16.93 14.971 17.67 14.025 18.21 12.964L20.85 11.497C21.202 11.302 21.512 11.129 21.757 10.959C22.022 10.775 22.261 10.561 22.439 10.259C22.617 9.956 22.689 9.643 22.72 9.322C22.75 9.025 22.75 8.67 22.75 8.268V8.123C22.75 7.635 22.75 7.207 22.71 6.854C22.666 6.473 22.57 6.104 22.325 5.766C22.081 5.427 21.762 5.219 21.415 5.056C21.092 4.906 20.686 4.771 20.223 4.617L19.731 4.453C19.701 3.827 19.564 3.267 19.143 2.748C18.487 1.939 17.647 1.798 16.637 1.63L16.502 1.607C15.0139 1.36305 13.508 1.24363 12 1.25ZM14.585 21.25L14.425 20.451C14.4137 20.3943 14.3831 20.3434 14.3384 20.3067C14.2938 20.2701 14.2378 20.25 14.18 20.25H9.82C9.76223 20.25 9.70625 20.2701 9.66158 20.3067C9.61692 20.3434 9.58632 20.3943 9.575 20.451L9.415 21.25H14.585ZM4.288 6.028L4.302 6.023C4.374 7.543 4.545 9.223 4.973 10.793L3.907 10.202C3.518 9.985 3.274 9.849 3.098 9.727C2.936 9.614 2.883 9.547 2.854 9.497C2.824 9.447 2.792 9.369 2.772 9.173C2.7508 8.86081 2.74346 8.54783 2.75 8.235V8.162C2.75 7.623 2.751 7.282 2.78 7.024C2.808 6.786 2.852 6.697 2.892 6.643C2.931 6.588 3.001 6.518 3.218 6.417C3.454 6.307 3.778 6.199 4.288 6.028ZM19.698 6.022C19.627 7.542 19.455 9.222 19.028 10.792L20.093 10.201C20.482 9.984 20.726 9.848 20.902 9.726C21.064 9.613 21.117 9.546 21.146 9.496C21.176 9.446 21.208 9.368 21.228 9.172C21.249 8.958 21.25 8.679 21.25 8.234V8.161C21.25 7.622 21.249 7.281 21.22 7.023C21.192 6.785 21.148 6.696 21.108 6.642C21.069 6.587 20.999 6.517 20.782 6.416C20.546 6.306 20.222 6.197 19.712 6.026L19.698 6.022ZM7.748 3.086C9.15353 2.85603 10.5758 2.74365 12 2.75C13.74 2.75 15.167 2.903 16.252 3.086C17.459 3.29 17.712 3.366 17.979 3.694C18.241 4.016 18.266 4.322 18.212 5.677C18.122 7.935 17.824 10.373 16.902 12.227C16.446 13.141 15.85 13.889 15.075 14.409C14.304 14.926 13.309 15.25 12 15.25C10.691 15.25 9.697 14.926 8.926 14.409C8.15 13.889 7.554 13.141 7.099 12.226C6.176 10.373 5.879 7.936 5.789 5.676C5.735 4.322 5.759 4.016 6.022 3.694C6.288 3.366 6.541 3.29 7.748 3.086Z"></path></g></symbol><symbol id="cup-filled" width="24" height="24" viewBox="0 0 24 24" xmlns="http://www.w3.org/2000/svg"><g><path fill-rule="evenodd" clip-rule="evenodd" d="M12 2C13.4661 1.9938 14.9302 2.10987 16.377 2.347C17.516 2.539 18.085 2.635 18.561 3.221C19.0361 3.80487 19.0111 4.43756 18.9613 5.69871L18.961 5.706C18.789 10.055 17.85 15.486 12.75 15.966V19.5H14.18C14.4111 19.5001 14.635 19.5803 14.8137 19.7269C14.9923 19.8735 15.1147 20.0774 15.16 20.304L15.35 21.25H18C18.1989 21.25 18.3897 21.329 18.5303 21.4697C18.671 21.6103 18.75 21.8011 18.75 22C18.75 22.1989 18.671 22.3897 18.5303 22.5303C18.3897 22.671 18.1989 22.75 18 22.75H6C5.80109 22.75 5.61032 22.671 5.46967 22.5303C5.32902 22.3897 5.25 22.1989 5.25 22C5.25 21.8011 5.32902 21.6103 5.46967 21.4697C5.61032 21.329 5.80109 21.25 6 21.25H8.65L8.84 20.304C8.88529 20.0774 9.00767 19.8735 9.18633 19.7269C9.36499 19.5803 9.58891 19.5001 9.82 19.5H11.25V15.966C6.15 15.486 5.212 10.054 5.039 5.706C4.989 4.44 4.964 3.807 5.439 3.221C5.915 2.635 6.484 2.539 7.623 2.347C8.747 2.157 10.217 2 12 2ZM22 8.235V8.162C22 7.119 22 6.597 21.717 6.204C21.489 5.888 21 5.5 20.175 5.493L20.173 5.545L20.163 5.766C20.096 7.464 19.913 9.45 19.367 11.298L20.457 10.858L20.467 10.8524C21.2123 10.4371 21.5869 10.2284 21.793 9.878C22 9.526 22 9.095 22 8.235ZM2 8.235V8.162C2 7.12 2 6.597 2.283 6.204C2.511 5.888 3.12935 5.5 3.82135 5.493L3.82235 5.545L3.83235 5.766C3.89935 7.464 4.08235 9.45 4.62935 11.298L3.543 10.858L3.53301 10.8524C2.78766 10.4371 2.41308 10.2284 2.207 9.878C2 9.526 2 9.095 2 8.235Z"></path></g></symbol><symbol id="chevron-left" xmlns="http://www.w3.org/2000/svg" width="24" height="24" viewBox="0 0 24 24"><path fill-rule="evenodd" clip-rule="evenodd" d="M9.21967 12.5303C8.92678 12.2374 8.92678 11.7626 9.21967 11.4697L14.2197 6.46967C14.5126 6.17678 14.9874 6.17678 15.2803 6.46967C15.5732 6.76256 15.5732 7.23744 15.2803 7.53033L10.8107 12L15.2803 16.4697C15.5732 16.7626 15.5732 17.2374 15.2803 17.5303C14.9874 17.8232 14.5126 17.8232 14.2197 17.5303L9.21967 12.5303Z"></path></symbol><symbol id="close" xmlns="http://www.w3.org/2000/svg" width="24" height="24" viewBox="0 0 24 24"><path fill-rule="evenodd" clip-rule="evenodd" d="M5.46967 5.46967C5.76256 5.17678 6.23744 5.17678 6.53033 5.46967L12 10.9393L17.4697 5.46967C17.7626 5.17678 18.2374 5.17678 18.5303 5.46967C18.8232 5.76257 18.8232 6.23744 18.5303 6.53033L13.0607 12L18.5303 17.4697C18.8232 17.7626 18.8232 18.2374 18.5303 18.5303C18.2374 18.8232 17.7626 18.8232 17.4697 18.5303L12 13.0607L6.53033 18.5303C6.23744 18.8232 5.76256 18.8232 5.46967 18.5303C5.17678 18.2374 5.17678 17.7626 5.46967 17.4697L10.9393 12L5.46967 6.53033C5.17678 6.23744 5.17678 5.76256 5.46967 5.46967Z"></path></symbol><symbol id="emoji-filled" width="24" height="24" viewBox="0 0 24 24" xmlns="http://www.w3.org/2000/svg"><g><path d="M13.9908 6.03623C14.4105 6.17576 14.7919 6.41144 15.1044 6.72448C15.4169 7.03751 15.6519 7.41925 15.7908 7.83923L16.2388 9.21623C16.2753 9.31921 16.342 9.4088 16.4302 9.47333C16.5184 9.53786 16.624 9.57434 16.7332 9.57801C16.8424 9.58168 16.9502 9.55237 17.0425 9.4939C17.1348 9.43544 17.2074 9.35053 17.2508 9.25023L17.2518 9.24723L17.2638 9.22623L17.3128 9.07523L17.3118 9.07023L17.7118 7.84023C17.8398 7.45523 18.0478 7.10323 18.3228 6.80723L18.3358 6.80023C18.5333 6.5907 18.7612 6.41204 19.0118 6.27023L19.0078 6.26523C19.1678 6.17523 19.3348 6.10123 19.5098 6.04323L20.8878 5.59523C20.9936 5.55757 21.0851 5.48809 21.1499 5.39633C21.2146 5.30457 21.2494 5.19502 21.2494 5.08273C21.2494 4.97043 21.2146 4.86088 21.1499 4.76912C21.0851 4.67736 20.9936 4.60788 20.8878 4.57023L20.8598 4.56323L19.4818 4.11523C19.0632 3.97606 18.6828 3.7413 18.3707 3.42956C18.0586 3.11782 17.8234 2.73766 17.6838 2.31923L17.2378 0.942227C17.2005 0.83574 17.1311 0.743466 17.0391 0.678179C16.9471 0.612891 16.8371 0.57782 16.7243 0.57782C16.6115 0.57782 16.5014 0.612891 16.4094 0.678179C16.3174 0.743466 16.248 0.83574 16.2108 0.942227L15.7628 2.31923L15.7518 2.35323C15.6116 2.76115 15.3802 3.13171 15.0753 3.4367C14.7703 3.7417 14.3997 3.97308 13.9918 4.11323L12.6148 4.56123C12.5078 4.598 12.415 4.66724 12.3493 4.7593C12.2836 4.85136 12.2483 4.96163 12.2483 5.07473C12.2483 5.18782 12.2836 5.2981 12.3493 5.39015C12.415 5.48221 12.5078 5.55146 12.6148 5.58823L13.9908 6.03623ZM23.0338 10.7922L22.2678 10.5442C22.0352 10.4667 21.824 10.3361 21.6507 10.1627C21.4775 9.98926 21.347 9.77785 21.2698 9.54523L21.0198 8.78123C20.9991 8.72216 20.9605 8.67098 20.9095 8.63478C20.8584 8.59857 20.7974 8.57912 20.7348 8.57912C20.6722 8.57912 20.6111 8.59857 20.5601 8.63478C20.509 8.67098 20.4705 8.72216 20.4498 8.78123L20.2018 9.54523C20.126 9.77639 19.9977 9.98688 19.827 10.1602C19.6563 10.3335 19.4478 10.465 19.2178 10.5442L19.1218 10.5742H19.1178L18.4508 10.7912C18.3914 10.8117 18.34 10.8504 18.3037 10.9017C18.2675 10.953 18.2483 11.0144 18.2488 11.0772C18.2486 11.1401 18.2682 11.2015 18.3048 11.2526C18.3414 11.3038 18.3932 11.3421 18.4528 11.3622L19.2158 11.6102C19.5577 11.7235 19.8506 11.9504 20.0458 12.2532C20.1158 12.3632 20.1738 12.4832 20.2158 12.6102L20.4648 13.3752C20.4851 13.4354 20.5239 13.4876 20.5758 13.5242C20.614 13.5513 20.658 13.5692 20.7043 13.5764C20.7505 13.5836 20.7979 13.5799 20.8425 13.5656C20.8871 13.5514 20.9278 13.5269 20.9614 13.4942C20.9949 13.4615 21.0204 13.4215 21.0358 13.3772L21.2848 12.6132C21.3621 12.3805 21.4926 12.1689 21.6661 11.9955C21.8395 11.8221 22.051 11.6915 22.2838 11.6142L23.0488 11.3662C23.1078 11.3455 23.159 11.307 23.1952 11.2559C23.2314 11.2049 23.2509 11.1438 23.2509 11.0812C23.2509 11.0186 23.2314 10.9576 23.1952 10.9065C23.159 10.8555 23.1078 10.8169 23.0488 10.7962L23.0338 10.7922ZM11.2508 22.5802C16.1008 22.5802 20.1458 19.1272 21.0588 14.5442C20.7408 14.6224 20.405 14.5776 20.1186 14.4189C19.8322 14.2602 19.6162 13.9993 19.5138 13.6882L19.2658 12.9262C19.2382 12.8422 19.1915 12.7657 19.1294 12.7027C19.0673 12.6397 18.9914 12.592 18.9078 12.5632L18.1178 12.3062C17.9372 12.2426 17.773 12.1399 17.6367 12.0054C17.5004 11.871 17.3955 11.7081 17.3294 11.5285C17.2633 11.3488 17.2377 11.1568 17.2544 10.9661C17.271 10.7754 17.3295 10.5907 17.4258 10.4252C17.2281 10.521 17.0123 10.5736 16.7927 10.5794C16.5731 10.5852 16.3548 10.5442 16.1523 10.459C15.9498 10.3739 15.7678 10.2466 15.6184 10.0855C15.469 9.92452 15.3556 9.73351 15.2858 9.52523L14.8388 8.15223C14.75 7.88033 14.5982 7.63327 14.3958 7.43123C14.1952 7.23019 13.9508 7.07824 13.6818 6.98723L12.2818 6.53223C11.9786 6.42525 11.7163 6.22627 11.5316 5.96307C11.3469 5.69986 11.249 5.38556 11.2515 5.06402C11.254 4.74249 11.3569 4.42976 11.5457 4.1695C11.7345 3.90923 11.9999 3.71441 12.3048 3.61223L13.6648 3.17023C13.8048 3.12223 13.9378 3.05723 14.0618 2.97823C13.1486 2.71178 12.202 2.57709 11.2508 2.57823C5.72678 2.57723 1.24878 7.05523 1.24878 12.5782C1.24878 18.1022 5.72678 22.5802 11.2508 22.5802ZM6.65878 15.2372C6.81501 15.1142 7.0137 15.0583 7.21116 15.0817C7.40862 15.1052 7.58869 15.2061 7.71178 15.3622C8.13278 15.8981 8.6702 16.3312 9.28335 16.6287C9.89649 16.9262 10.5693 17.0802 11.2508 17.0792C11.9312 17.0799 12.6029 16.926 13.2151 16.629C13.8273 16.3321 14.364 15.9 14.7848 15.3652C14.8458 15.2879 14.9215 15.2233 15.0076 15.1752C15.0936 15.1271 15.1882 15.0965 15.2861 15.0849C15.384 15.0734 15.4832 15.0813 15.578 15.1081C15.6728 15.1349 15.7614 15.1802 15.8388 15.2412C15.9161 15.3023 15.9807 15.378 16.0288 15.464C16.0769 15.55 16.1076 15.6447 16.1191 15.7425C16.1306 15.8404 16.1227 15.9396 16.0959 16.0344C16.0691 16.1293 16.0238 16.2179 15.9628 16.2952C15.4015 17.0078 14.6858 17.5836 13.8695 17.9793C13.0533 18.3749 12.1579 18.5801 11.2508 18.5792C10.3424 18.5801 9.44564 18.3744 8.62844 17.9777C7.81124 17.5809 7.09496 17.0036 6.53378 16.2892C6.41077 16.133 6.35483 15.9343 6.37827 15.7368C6.40171 15.5394 6.50261 15.3593 6.65878 15.2362M7.00178 10.5792C6.99505 10.411 7.02237 10.2431 7.0821 10.0857C7.14183 9.92833 7.23275 9.78461 7.34939 9.66321C7.46604 9.5418 7.60601 9.44521 7.7609 9.37923C7.91579 9.31325 8.08242 9.27924 8.25078 9.27924C8.41914 9.27924 8.58577 9.31325 8.74066 9.37923C8.89555 9.44521 9.03552 9.5418 9.15216 9.66321C9.26881 9.78461 9.35972 9.92833 9.41946 10.0857C9.47919 10.2431 9.50651 10.411 9.49978 10.5792C9.48687 10.9018 9.34963 11.2069 9.11681 11.4306C8.88399 11.6543 8.57364 11.7792 8.25078 11.7792C7.92791 11.7792 7.61757 11.6543 7.38475 11.4306C7.15193 11.2069 7.01469 10.9018 7.00178 10.5792ZM13.0018 10.5792C12.995 10.411 13.0224 10.2431 13.0821 10.0857C13.1418 9.92833 13.2328 9.78461 13.3494 9.66321C13.466 9.5418 13.606 9.44521 13.7609 9.37923C13.9158 9.31325 14.0824 9.27924 14.2508 9.27924C14.4191 9.27924 14.5858 9.31325 14.7407 9.37923C14.8956 9.44521 15.0355 9.5418 15.1522 9.66321C15.2688 9.78461 15.3597 9.92833 15.4195 10.0857C15.4792 10.2431 15.5065 10.411 15.4998 10.5792C15.4869 10.9018 15.3496 11.2069 15.1168 11.4306C14.884 11.6543 14.5736 11.7792 14.2508 11.7792C13.9279 11.7792 13.6176 11.6543 13.3848 11.4306C13.1519 11.2069 13.0147 10.9018 13.0018 10.5792Z"></path></g></symbol><symbol id="emoji-outline" width="24" height="24" viewBox="0 0 24 24" xmlns="http://www.w3.org/2000/svg"><g><path d="M14.9044 7.57387C14.5598 7.12933 14.091 6.79699 13.5574 6.61887L12.1794 6.17087C12.0736 6.13321 11.9821 6.06373 11.9173 5.97197C11.8526 5.88021 11.8179 5.77067 11.8179 5.65837C11.8179 5.54607 11.8526 5.43652 11.9173 5.34476C11.9821 5.253 12.0736 5.18353 12.1794 5.14587L12.8894 4.91487L12.8864 4.91387L13.5564 4.69587C13.9648 4.55652 14.3358 4.32541 14.6409 4.02031C14.946 3.71521 15.1771 3.34423 15.3164 2.93587L15.3274 2.90187L15.7754 1.52487C15.8127 1.41838 15.8821 1.32611 15.9741 1.26082C16.0661 1.19553 16.1761 1.16046 16.2889 1.16046C16.4017 1.16046 16.5118 1.19553 16.6038 1.26082C16.6958 1.32611 16.7652 1.41838 16.8024 1.52487L17.2494 2.90187C17.3888 3.3206 17.624 3.70101 17.9363 4.01281C18.2487 4.32461 18.6295 4.55918 19.0484 4.69787L20.4254 5.14587L20.4534 5.15287C20.5592 5.19053 20.6508 5.26 20.7155 5.35176C20.7802 5.44352 20.815 5.55307 20.815 5.66537C20.815 5.77767 20.7802 5.88721 20.7155 5.97897C20.6508 6.07073 20.5592 6.14021 20.4534 6.17787L19.0754 6.62587C18.9013 6.68348 18.7332 6.75783 18.5734 6.84787L18.5774 6.85287C18.1314 7.10416 17.7616 7.47148 17.5074 7.91587L17.5044 7.91287C17.4122 8.07498 17.3361 8.24581 17.2774 8.42287L16.8294 9.79887C16.792 9.90501 16.7225 9.99692 16.6306 10.0619C16.5388 10.1269 16.429 10.1619 16.3164 10.1619C16.2039 10.1619 16.0941 10.1269 16.0022 10.0619C15.9103 9.99692 15.8409 9.90501 15.8034 9.79887L15.3554 8.42187C15.2547 8.11569 15.1025 7.82892 14.9054 7.57387M22.6004 11.3749L21.8344 11.1269C21.6019 11.0494 21.3906 10.9187 21.2174 10.7453C21.0441 10.5719 20.9137 10.3605 20.8364 10.1279L20.5864 9.36387C20.5657 9.3048 20.5272 9.25362 20.4761 9.21742C20.4251 9.18121 20.364 9.16176 20.3014 9.16176C20.2388 9.16176 20.1778 9.18121 20.1267 9.21742C20.0757 9.25362 20.0371 9.3048 20.0164 9.36387L19.7684 10.1279C19.646 10.5007 19.3889 10.8145 19.0474 11.0079H19.0434V11.0099C18.9608 11.0565 18.8741 11.0957 18.7844 11.1269L18.0194 11.3749C17.9604 11.3956 17.9092 11.4341 17.873 11.4852C17.8368 11.5362 17.8173 11.5973 17.8173 11.6599C17.8173 11.7225 17.8368 11.7835 17.873 11.8346C17.9092 11.8856 17.9604 11.9242 18.0194 11.9449L18.7844 12.1939C19.0169 12.2714 19.2282 12.4021 19.4014 12.5755C19.5746 12.7489 19.7051 12.9603 19.7824 13.1929L20.0314 13.9579C20.0517 14.018 20.0906 14.0702 20.1424 14.1069C20.1806 14.134 20.2246 14.1518 20.2709 14.159C20.3172 14.1662 20.3645 14.1625 20.4091 14.1483C20.4538 14.134 20.4945 14.1096 20.528 14.0769C20.5616 14.0442 20.587 14.0041 20.6024 13.9599L20.8514 13.1959C20.9287 12.9631 21.0593 12.7516 21.2327 12.5782C21.4061 12.4047 21.6177 12.2742 21.8504 12.1969L22.6154 11.9489C22.6745 11.9282 22.7257 11.8896 22.7619 11.8386C22.7981 11.7875 22.8175 11.7265 22.8175 11.6639C22.8175 11.6013 22.7981 11.5402 22.7619 11.4892C22.7257 11.4381 22.6745 11.3996 22.6154 11.3789L22.6004 11.3749ZM19.5644 14.9239C19.421 14.8218 19.2996 14.6919 19.2074 14.5419C18.9413 16.1576 18.2142 17.6621 17.1135 18.8745C16.0128 20.0869 14.5853 20.9556 13.0027 21.3762C11.4201 21.7967 9.74977 21.7513 8.1924 21.2452C6.63503 20.7392 5.25696 19.7941 4.22384 18.5236C3.19073 17.2531 2.54654 15.7113 2.36871 14.0835C2.19089 12.4556 2.487 10.8111 3.22145 9.34751C3.9559 7.88394 5.09743 6.66363 6.50881 5.83329C7.9202 5.00295 9.54136 4.59791 11.1774 4.66687C11.361 4.44871 11.6011 4.28538 11.8714 4.19487L13.2314 3.75287C13.3714 3.70487 13.5044 3.63987 13.6284 3.56087C12.7152 3.29442 11.7687 3.15973 10.8174 3.16087C5.29343 3.15987 0.81543 7.63787 0.81543 13.1609C0.81543 18.6849 5.29343 23.1629 10.8174 23.1629C15.6674 23.1629 19.7124 19.7099 20.6254 15.1269C20.4444 15.1711 20.2559 15.1758 20.0728 15.1408C19.8898 15.1058 19.7164 15.0318 19.5644 14.9239ZM10.8164 17.6639C10.1347 17.6647 9.46167 17.5102 8.84848 17.2122C8.2353 16.9142 7.69803 16.4804 7.27743 15.9439C7.1541 15.7877 6.97377 15.6868 6.77611 15.6636C6.57845 15.6403 6.37964 15.6965 6.22343 15.8199C6.06722 15.9432 5.96639 16.1235 5.94314 16.3212C5.91988 16.5189 5.9761 16.7177 6.09943 16.8739C6.66071 17.588 7.37704 18.1652 8.19423 18.5618C9.01143 18.9583 9.9081 19.1639 10.8164 19.1629C12.6764 19.1629 14.3964 18.3089 15.5284 16.8779C15.5895 16.8005 15.6347 16.7119 15.6615 16.6171C15.6884 16.5222 15.6962 16.4231 15.6847 16.3252C15.6732 16.2273 15.6425 16.1327 15.5944 16.0467C15.5463 15.9606 15.4818 15.8849 15.4044 15.8239C15.3271 15.7628 15.2385 15.7176 15.1436 15.6908C15.0488 15.6639 14.9496 15.6561 14.8517 15.6676C14.7539 15.6791 14.6592 15.7098 14.5732 15.7579C14.4872 15.806 14.4115 15.8705 14.3504 15.9479C13.9298 16.4828 13.3931 16.9151 12.7809 17.2122C12.1687 17.5093 11.4969 17.6634 10.8164 17.6629M9.06643 11.1619C9.06643 10.8303 8.93473 10.5124 8.70031 10.278C8.46589 10.0436 8.14795 9.91187 7.81643 9.91187C7.48491 9.91187 7.16697 10.0436 6.93255 10.278C6.69813 10.5124 6.56643 10.8303 6.56643 11.1619C6.56643 11.4934 6.69813 11.8113 6.93255 12.0458C7.16697 12.2802 7.48491 12.4119 7.81643 12.4119C8.14795 12.4119 8.46589 12.2802 8.70031 12.0458C8.93473 11.8113 9.06643 11.4934 9.06643 11.1619ZM15.0664 11.1619C15.0664 10.8303 14.9347 10.5124 14.7003 10.278C14.4659 10.0436 14.148 9.91187 13.8164 9.91187C13.4849 9.91187 13.167 10.0436 12.9325 10.278C12.6981 10.5124 12.5664 10.8303 12.5664 11.1619C12.5664 11.4934 12.6981 11.8113 12.9325 12.0458C13.167 12.2802 13.4849 12.4119 13.8164 12.4119C14.148 12.4119 14.4659 12.2802 14.7003 12.0458C14.9347 11.8113 15.0664 11.4934 15.0664 11.1619Z"></path></g></symbol><symbol id="burgermenu" xmlns="http://www.w3.org/2000/svg" width="24" height="24" viewBox="0 0 24 24"><path fill-rule="evenodd" clip-rule="evenodd" d="M3.25 6C3.25 5.58579 3.58579 5.25 4 5.25H20C20.4142 5.25 20.75 5.58579 20.75 6C20.75 6.41421 20.4142 6.75 20 6.75H4C3.58579 6.75 3.25 6.41421 3.25 6ZM3.25 12C3.25 11.5858 3.58579 11.25 4 11.25H20C20.4142 11.25 20.75 11.5858 20.75 12C20.75 12.4142 20.4142 12.75 20 12.75H4C3.58579 12.75 3.25 12.4142 3.25 12ZM3.25 18C3.25 17.5858 3.58579 17.25 4 17.25H20C20.4142 17.25 20.75 17.5858 20.75 18C20.75 18.4142 20.4142 18.75 20 18.75H4C3.58579 18.75 3.25 18.4142 3.25 18Z"></path></symbol><symbol id="facebook" width="40" height="40" viewBox="0 0 40 40" xmlns="http://www.w3.org/2000/svg"><path fill-rule="evenodd" clip-rule="evenodd" d="M0 20C0 8.95431 8.95431 0 20 0C31.0457 0 40 8.95431 40 20C40 31.0457 31.0457 40 20 40C8.95431 40 0 31.0457 0 20ZM20 10C25.5 10 30 14.5 30 20C30 25 26.375 29.25 21.375 30V22.875H23.75L24.25 20H21.5V18.125C21.5 17.375 21.875 16.625 23.125 16.625H24.375V14.125C24.375 14.125 23.25 13.875 22.125 13.875C19.875 13.875 18.375 15.25 18.375 17.75V20H15.875V22.875H18.375V29.875C13.625 29.125 10 25 10 20C10 14.5 14.5 10 20 10Z"></path><path d="M39.6407 1.69002L38.2607 2.47002V2.31002L39.6407 3.09002L39.4107 3.51002L38.0507 2.72002L38.1607 2.67002V4.20002H37.7007L37.7107 2.67002L37.8107 2.72002L36.4607 3.51002L36.2207 3.09002L37.6107 2.31002V2.47002L36.2207 1.69002L36.4607 1.27002L37.8107 2.06002L37.7107 2.11002L37.7007 0.580017H38.1607V2.11002L38.0507 2.06002L39.4107 1.27002L39.6407 1.69002Z"></path></symbol><symbol id="heart-outline" xmlns="http://www.w3.org/2000/svg" width="24" height="24" viewBox="0 0 24 24"><path d="M11.95 20.95C11.75 20.95 11.56 20.87 11.42 20.73L3.22998 12.53C2.17998 11.48 1.59998 10.09 1.59998 8.61C1.59998 7.13 2.17998 5.73 3.22998 4.69C4.26998 3.64 5.66998 3.06 7.14998 3.06C8.62998 3.06 10.03 3.64 11.07 4.68L11.95 5.56L12.83 4.68C13.34 4.16 13.94 3.74 14.62 3.45C15.3 3.16 16.02 3.01 16.76 3C17.5 3 18.22 3.13 18.91 3.41C19.6 3.69 20.21 4.1 20.73 4.62C21.25 5.14 21.66 5.76 21.94 6.44C22.22 7.12 22.36 7.85 22.35 8.59C22.35 9.33 22.19 10.05 21.9 10.73C21.61 11.41 21.19 12.02 20.65 12.53L12.47 20.72C12.33 20.86 12.14 20.94 11.94 20.94L11.95 20.95ZM4.28998 5.75C3.52998 6.52 3.09998 7.53 3.09998 8.61C3.09998 9.69 3.51998 10.71 4.28998 11.47L11.95 19.13L19.61 11.47C20.01 11.09 20.31 10.64 20.53 10.15C20.74 9.65 20.85 9.13 20.86 8.59C20.86 8.05 20.76 7.52 20.56 7.02C20.36 6.52 20.06 6.07 19.68 5.69C19.3 5.31 18.85 5.01 18.35 4.81C17.85 4.61 17.33 4.51 16.78 4.51C16.24 4.51 15.71 4.63 15.22 4.84C14.72 5.05 14.28 5.36 13.9 5.75L12.48 7.16C12.19 7.45 11.71 7.45 11.42 7.16L10.01 5.75C9.23998 4.99 8.22998 4.56 7.14998 4.56C6.06998 4.56 5.04998 4.98 4.28998 5.75Z"></path></symbol><symbol id="gift-filled" width="24" height="24" viewBox="0 0 24 24" xmlns="http://www.w3.org/2000/svg"><g><g><path fill-rule="evenodd" clip-rule="evenodd" d="M17.2063 3.29288C16.085 2.17154 14.2618 2.18115 13.1434 3.29955C12.8695 3.57348 12.6634 3.94488 12.5126 4.26153C12.3513 4.60016 12.2064 4.97863 12.0826 5.33901C12.038 5.4686 11.9954 5.59809 11.955 5.72526C11.914 5.59658 11.8708 5.46555 11.8255 5.33448C11.7012 4.97389 11.5562 4.59567 11.3957 4.25812C11.2462 3.94363 11.0411 3.57208 10.7686 3.29959C9.65033 2.18129 7.82716 2.1715 6.70572 3.29293C5.58438 4.41428 5.59399 6.23745 6.71239 7.35585C6.83751 7.48097 6.98297 7.59194 7.13425 7.68994H3.09857C2.71298 7.68994 2.40039 8.00253 2.40039 8.38812V11.3018C2.40039 11.6874 2.71298 12 3.09857 12H20.9022C21.2878 12 21.6004 11.6874 21.6004 11.3018L21.6004 8.38812C21.6004 8.00253 21.2878 7.68994 20.9022 7.68994H16.7763C16.9282 7.59204 17.0744 7.48104 17.1997 7.3558C18.318 6.23749 18.3278 4.41432 17.2063 3.29288ZM14.5576 4.71376C14.9016 4.36973 15.4585 4.37346 15.7921 4.7071C16.1258 5.04075 16.1295 5.59758 15.7854 5.94159C15.7854 5.94159 15.777 5.94953 15.7599 5.96253C15.7405 5.97725 15.7133 5.99626 15.6767 6.0191C15.6024 6.06547 15.5045 6.11853 15.3824 6.17657C15.1372 6.29316 14.8352 6.41076 14.5126 6.52202C14.2443 6.61457 13.9737 6.69866 13.7277 6.77059C13.7989 6.5255 13.8821 6.25629 13.9739 5.98922C14.0845 5.66765 14.2016 5.36651 14.3183 5.12146C14.3764 4.99948 14.4297 4.90132 14.4765 4.82658C14.4996 4.78974 14.519 4.76202 14.5342 4.74206C14.5492 4.72245 14.5576 4.71376 14.5576 4.71376ZM8.11994 4.70715C8.45359 4.37349 9.01042 4.3698 9.35443 4.71381C9.35443 4.71381 9.36152 4.72118 9.37537 4.73939C9.39009 4.75874 9.4091 4.786 9.43195 4.82258C9.47831 4.89681 9.53137 4.99476 9.58941 5.11685C9.706 5.36208 9.8236 5.66408 9.93486 5.98663C10.0274 6.25495 10.1115 6.52553 10.1834 6.77159C9.93835 6.70038 9.66913 6.61716 9.40206 6.52534C9.08049 6.41479 8.77935 6.29766 8.5343 6.18096C8.41233 6.12287 8.31417 6.06956 8.23942 6.02272C8.20258 5.99964 8.17486 5.98026 8.15491 5.96503C8.1353 5.95007 8.12661 5.94165 8.12661 5.94165C7.78258 5.59762 7.7863 5.04078 8.11994 4.70715Z"></path><path d="M4.14585 20.9554L4.14584 15C4.14584 14.4477 4.59356 14 5.14585 14H10C10.5523 14 11 14.4477 11 15V20.6536C11 21.2059 10.5523 21.6536 10 21.6536H4.84403C4.45843 21.6536 4.14585 21.341 4.14585 20.9554Z"></path><path d="M19.1568 21.6536H14C13.4477 21.6536 13 21.2059 13 20.6536V15C13 14.4477 13.4477 14 14 14H18.8549C19.4072 14 19.8549 14.4477 19.8549 15L19.8549 20.9554C19.8549 21.341 19.5424 21.6536 19.1568 21.6536Z"></path></g></g></symbol><symbol id="globe" xmlns="http://www.w3.org/2000/svg" width="24" height="24" viewBox="0 0 24 24"><path fill-rule="evenodd" clip-rule="evenodd" d="M4.56761 8.41485C4.04369 9.49899 3.75 10.7152 3.75 12C3.75 13.2848 4.04369 14.501 4.56761 15.5851C5.36858 15.1655 6.3553 14.8195 7.46856 14.564C7.36648 13.7451 7.3125 12.8849 7.3125 12C7.3125 11.1151 7.36648 10.2549 7.46856 9.43603C6.3553 9.18047 5.36858 8.83447 4.56761 8.41485ZM5.34242 7.12677C5.98241 7.45153 6.78684 7.73431 7.71484 7.95326C7.91826 6.98538 8.19358 6.10131 8.52865 5.33542C8.69248 4.96095 8.87333 4.60849 9.07106 4.28504C7.56921 4.85552 6.27715 5.85195 5.34242 7.12677ZM12 2.25C6.61522 2.25 2.25 6.61522 2.25 12C2.25 17.3848 6.61522 21.75 12 21.75C17.3848 21.75 21.75 17.3848 21.75 12C21.75 6.61522 17.3848 2.25 12 2.25ZM12 3.75C11.7045 3.75 11.3639 3.88373 10.9886 4.24648C10.6098 4.61271 10.2344 5.17886 9.90288 5.93665C9.61583 6.59278 9.37272 7.36729 9.18941 8.23034C10.1133 8.36335 11.1185 8.4375 12.1764 8.4375C13.1054 8.4375 13.9931 8.38034 14.8203 8.27654C14.6359 7.39491 14.3893 6.60447 14.0971 5.93665C13.7656 5.17886 13.3902 4.61271 13.0114 4.24648C12.6361 3.88373 12.2955 3.75 12 3.75ZM16.3009 8.02879C16.096 7.03135 15.8151 6.12118 15.4714 5.33542C15.3075 4.96095 15.1267 4.60849 14.9289 4.28504C16.4801 4.87424 17.8074 5.91779 18.7484 7.25314C18.0754 7.562 17.2465 7.82775 16.3009 8.02879ZM15.0595 9.75812C14.1429 9.87545 13.1736 9.9375 12.1764 9.9375C11.0514 9.9375 9.96291 9.85856 8.94613 9.71069C8.85939 10.4361 8.8125 11.2036 8.8125 12C8.8125 12.7964 8.85939 13.5639 8.94613 14.2893C9.96291 14.1414 11.0514 14.0625 12.1764 14.0625C13.1736 14.0625 14.1429 14.1246 15.0595 14.2419C15.1426 13.5305 15.1875 12.7791 15.1875 12C15.1875 11.2209 15.1426 10.4695 15.0595 9.75812ZM16.5407 14.4888C16.6368 13.6925 16.6875 12.8578 16.6875 12C16.6875 11.1422 16.6368 10.3075 16.5407 9.51116C17.662 9.27773 18.6674 8.95467 19.4997 8.55752C19.9814 9.60526 20.25 10.7713 20.25 12C20.25 13.2287 19.9814 14.3947 19.4997 15.4425C18.6674 15.0453 17.662 14.7223 16.5407 14.4888ZM14.8203 15.7235C13.9931 15.6197 13.1054 15.5625 12.1764 15.5625C11.1185 15.5625 10.1133 15.6366 9.18941 15.7697C9.37272 16.6327 9.61583 17.4072 9.90288 18.0633C10.2344 18.8211 10.6098 19.3873 10.9886 19.7535C11.3639 20.1163 11.7045 20.25 12 20.25C12.2955 20.25 12.6361 20.1163 13.0114 19.7535C13.3902 19.3873 13.7656 18.8211 14.0971 18.0633C14.3893 17.3955 14.6359 16.6051 14.8203 15.7235ZM14.9289 19.715C15.1267 19.3915 15.3075 19.039 15.4714 18.6646C15.8151 17.8788 16.096 16.9686 16.3009 15.9712C17.2465 16.1723 18.0754 16.438 18.7484 16.7469C17.8074 18.0822 16.4801 19.1258 14.9289 19.715ZM9.07106 19.715C8.87333 19.3915 8.69248 19.039 8.52865 18.6646C8.19358 17.8987 7.91826 17.0146 7.71484 16.0467C6.78684 16.2657 5.98241 16.5485 5.34242 16.8732C6.27715 18.1481 7.56921 19.1445 9.07106 19.715Z"></path></symbol><symbol id="graduation-outline" width="24" height="24" viewBox="0 0 24 24" xmlns="http://www.w3.org/2000/svg"><g><path fill-rule="evenodd" clip-rule="evenodd" d="M11.1941 2.2467C11.746 1.91777 12.4339 1.91777 12.9858 2.2467L22.5698 7.95817C23.1713 8.31664 23.328 9.05421 23.0399 9.61021V14.4153C23.0399 14.8295 22.7042 15.1653 22.2899 15.1653C21.8757 15.1653 21.5399 14.8295 21.5399 14.4153V10.7195L19.7789 11.769L19.7789 17.8584C19.7789 18.4775 19.4518 19.0505 18.9187 19.3653L13.5267 22.5493C12.6362 23.0751 11.526 23.0569 10.6532 22.5021L5.70518 19.3569C5.19997 19.0357 4.89397 18.4786 4.89397 17.88V12.0627L1.61009 10.1057C0.796639 9.62097 0.796635 8.44294 1.61009 7.95817L11.1941 2.2467ZM6.39397 12.9566V17.88C6.39397 17.9655 6.43769 18.0451 6.50986 18.091L11.4579 21.2362C11.8546 21.4884 12.3592 21.4967 12.764 21.2576L18.156 18.0737C18.2322 18.0287 18.2789 17.9469 18.2789 17.8584L18.2789 12.6629L12.9858 15.8172C12.4339 16.1461 11.746 16.1461 11.1941 15.8172L6.39397 12.9566ZM21.4415 9.03195L12.2179 3.53524C12.1391 3.48825 12.0408 3.48825 11.962 3.53524L2.73835 9.03195L11.962 14.5287C12.0408 14.5757 12.1391 14.5757 12.2179 14.5287L21.4415 9.03195Z"></path></g></symbol><symbol id="graduation-filled" width="24" height="24" viewBox="0 0 24 24" xmlns="http://www.w3.org/2000/svg"><g><path fill-rule="evenodd" clip-rule="evenodd" d="M10.9161 1.56631C11.5469 1.19038 12.333 1.19038 12.9638 1.56631L22.5478 7.27777C23.2492 7.6958 23.4466 8.54344 23.1399 9.20324V13.9497C23.1399 14.502 22.6922 14.9497 22.1399 14.9497C21.5876 14.9497 21.1399 14.502 21.1399 13.9497V10.6938L12.9638 15.5663C12.333 15.9422 11.5469 15.9422 10.9161 15.5663L1.33208 9.85486C0.355943 9.27314 0.355937 7.8595 1.33208 7.27777L10.9161 1.56631ZM5.00543 13.7881C5.32129 13.6113 5.70805 13.6189 6.01665 13.8082L10.5254 16.4776C10.5254 16.4776 11.4582 17.1045 11.9582 17.1045C12.4582 17.1045 13.4806 16.4776 13.4806 16.4776L18.3659 13.5918C18.6749 13.4072 19.0593 13.4029 19.3724 13.5805C19.6854 13.7582 19.8789 14.0903 19.8789 14.4503V17.3928C19.8789 18.1003 19.505 18.7552 18.8958 19.115L13.5038 22.2989C12.5323 22.8725 11.3212 22.8527 10.3691 22.2475L5.42105 19.1022C4.84366 18.7352 4.49395 18.0985 4.49395 17.4143V14.6607C4.49395 14.2987 4.68958 13.965 5.00543 13.7881Z"></path></g></symbol><symbol id="heart-filled" xmlns="http://www.w3.org/2000/svg" width="24" height="24" viewBox="0 0 24 24"><path d="M11.95 20.95C11.75 20.95 11.56 20.87 11.42 20.73L3.22998 12.53C2.17998 11.48 1.59998 10.09 1.59998 8.61C1.59998 7.13 2.17998 5.73 3.22998 4.69C4.26998 3.64 5.66998 3.06 7.14998 3.06C8.62998 3.06 10.03 3.64 11.07 4.68L11.95 5.56L12.83 4.68C13.34 4.16 13.94 3.74 14.62 3.45C15.3 3.16 16.02 3.01 16.76 3C17.5 3 18.22 3.13 18.91 3.41C19.6 3.69 20.21 4.1 20.73 4.62C21.25 5.14 21.66 5.76 21.94 6.44C22.22 7.12 22.36 7.85 22.35 8.59C22.35 9.33 22.19 10.05 21.9 10.73C21.61 11.41 21.19 12.02 20.65 12.53L12.47 20.72C12.33 20.86 12.14 20.94 11.94 20.94L11.95 20.95Z"></path></symbol><symbol id="gift-outline" width="24" height="24" viewBox="0 0 24 24" xmlns="http://www.w3.org/2000/svg"><g><path fill-rule="evenodd" clip-rule="evenodd" d="M13.1074 2.36637C14.129 1.34477 15.7939 1.33682 16.8167 2.3597C17.8397 3.38267 17.8316 5.04755 16.8101 6.06907C16.569 6.31011 16.2297 6.50033 15.921 6.64709C15.7017 6.75136 15.4631 6.84956 15.222 6.94003H20.9018C21.7017 6.94003 22.35 7.58841 22.35 8.38822V11.8791C22.35 12.6789 21.7017 13.3273 20.9018 13.3273H20.6046V20.9555C20.6046 21.7553 19.9562 22.4037 19.1564 22.4037H4.84366C4.04385 22.4037 3.39548 21.7553 3.39548 20.9555V13.3273H3.09821C2.2984 13.3273 1.65002 12.6789 1.65002 11.8791V8.38822C1.65002 7.58841 2.2984 6.94003 3.09821 6.94003H8.25748C8.02032 6.85089 7.78551 6.75407 7.56905 6.65098C7.25861 6.50314 6.91908 6.31185 6.67636 6.06912C5.65476 5.04752 5.64681 3.38264 6.66969 2.35975C7.69266 1.33679 9.35754 1.34489 10.3791 2.36642C10.6201 2.60746 10.8103 2.94679 10.9571 3.25551C11.1121 3.58152 11.2537 3.95021 11.3764 4.30604C11.5224 4.72944 11.648 5.153 11.7429 5.49621C11.8367 5.15437 11.961 4.73254 12.1062 4.31033C12.2284 3.9548 12.3698 3.586 12.5255 3.25906C12.6734 2.94862 12.8646 2.6091 13.1074 2.36637ZM11.4246 8.44003H3.15002V11.8273H11.4246V8.44003ZM11.4246 13.3273H4.89548V20.9037H11.4246V13.3273ZM12.9246 20.9037V13.3273H19.1046V20.9037H12.9246ZM12.9246 11.8273V8.44003H20.85V11.8273H12.9246ZM15.7561 3.42036C15.324 2.98826 14.6089 2.9862 14.168 3.42703C14.1125 3.48253 14.0099 3.63077 13.8798 3.90401C13.7575 4.16076 13.6369 4.47157 13.5247 4.79799C13.3731 5.23892 13.2449 5.68462 13.1546 6.02151C13.4919 5.93054 13.9392 5.80091 14.3813 5.6484C14.7086 5.5355 15.0202 5.41447 15.2769 5.2924C15.551 5.1621 15.697 5.0608 15.7494 5.00841C16.1902 4.56761 16.1882 3.85249 15.7561 3.42036ZM9.3184 3.42708C8.8776 2.98628 8.16248 2.98829 7.73035 3.42041C7.29825 3.85251 7.29619 4.56763 7.73702 5.00846C7.79252 5.06396 7.94076 5.16659 8.214 5.29672C8.47075 5.41899 8.78156 5.53959 9.10798 5.65181C9.54891 5.80339 9.99461 5.93164 10.3315 6.02192C10.2405 5.68462 10.1109 5.23731 9.95839 4.79516C9.84549 4.46785 9.72446 4.15633 9.60239 3.89956C9.47209 3.62549 9.37079 3.47947 9.3184 3.42708Z"></path></g></symbol><symbol id="home-filled" width="24" height="24" viewBox="0 0 24 24" xmlns="http://www.w3.org/2000/svg"><g><path d="M2.9386 8.25167C2.60094 8.48001 2.40039 8.84967 2.40039 9.24369V19.774C2.40039 20.7824 3.26 21.5999 4.32039 21.5999H8C8.55228 21.5999 9 21.1522 9 20.5999V14.2964C9 13.6241 9.57308 13.0791 10.28 13.0791H13.72C14.4269 13.0791 15 13.6241 15 14.2964V20.5999C15 21.1522 15.4477 21.5999 16 21.5999H19.6804C20.7408 21.5999 21.6004 20.7824 21.6004 19.774V9.24369C21.6004 8.84967 21.3998 8.48001 21.0622 8.25167L12.7422 2.62515C12.2981 2.32482 11.7027 2.32482 11.2586 2.62515L2.9386 8.25167Z"></path></g></symbol><symbol id="play-outline" width="24" height="24" viewBox="0 0 24 24" xmlns="http://www.w3.org/2000/svg"><g><path fill-rule="evenodd" clip-rule="evenodd" d="M2.25 12C2.25 6.61522 6.61522 2.25 12 2.25C17.3848 2.25 21.75 6.61522 21.75 12C21.75 17.3848 17.3848 21.75 12 21.75C6.61522 21.75 2.25 17.3848 2.25 12ZM12 3.75C7.44365 3.75 3.75 7.44365 3.75 12C3.75 16.5563 7.44365 20.25 12 20.25C16.5563 20.25 20.25 16.5563 20.25 12C20.25 7.44365 16.5563 3.75 12 3.75ZM9.13794 6.87312C9.64787 6.63503 10.1984 6.7701 10.605 7.02764L10.6272 7.0417L15.7884 10.8422C16.1818 11.0786 16.6186 11.483 16.6194 12.0941C16.6202 12.7027 16.1839 13.1242 15.7947 13.3801L10.6627 16.9694L10.6283 16.9885C10.2297 17.209 9.66038 17.389 9.12631 17.1037C8.5845 16.8144 8.4211 16.2312 8.39266 15.7536L8.3914 15.7324L8.36968 8.23785C8.36049 7.6842 8.58903 7.12942 9.13794 6.87312ZM9.87 8.34692L14.9631 12.0972L14.9908 12.1132C14.9826 12.1188 14.9741 12.1245 14.9652 12.1303L14.9547 12.1371L9.89125 15.6785L9.87 8.34692Z"></path></g></symbol><symbol id="play-filled" width="24" height="24" viewBox="0 0 24 24" xmlns="http://www.w3.org/2000/svg"><g><path fill-rule="evenodd" clip-rule="evenodd" d="M12 21.6C17.302 21.6 21.6 17.3019 21.6 12C21.6 6.69806 17.302 2.39999 12 2.39999C6.69809 2.39999 2.40002 6.69806 2.40002 12C2.40002 17.3019 6.69809 21.6 12 21.6ZM15.5578 12.5199C15.9578 12.289 15.9578 11.7116 15.5578 11.4807L10.1578 8.36297C9.75784 8.13203 9.25784 8.4207 9.25784 8.88258L9.25784 15.118C9.25784 15.5798 9.75784 15.8685 10.1578 15.6376L15.5578 12.5199Z"></path></g></symbol><symbol id="home-outline" width="24" height="24" viewBox="0 0 24 24" xmlns="http://www.w3.org/2000/svg"><g><path fill-rule="evenodd" clip-rule="evenodd" d="M12.2753 3.83244C12.1127 3.72252 11.8873 3.72252 11.7247 3.83244L3.92472 9.1073C3.80591 9.18764 3.75 9.30577 3.75 9.41605V19.2882C3.75 19.7843 4.18415 20.25 4.8 20.25H8.25V14.1528C8.25 13.0733 9.159 12.2616 10.2 12.2616H13.8C14.841 12.2616 15.75 13.0733 15.75 14.1528V20.25H19.2C19.8159 20.25 20.25 19.7843 20.25 19.2882V9.41605C20.25 9.30577 20.1941 9.18765 20.0753 9.1073L12.2753 3.83244ZM19.2 21.75C20.5724 21.75 21.75 20.6829 21.75 19.2882V9.41605C21.75 8.78754 21.4299 8.21256 20.9156 7.86476L13.1156 2.5899C12.4454 2.1367 11.5546 2.1367 10.8844 2.5899L3.08443 7.86476C2.57012 8.21256 2.25 8.78754 2.25 9.41605V19.2882C2.25 20.6829 3.42763 21.75 4.8 21.75H19.2ZM14.25 20.25V14.1528C14.25 13.9718 14.0845 13.7616 13.8 13.7616H10.2C9.91552 13.7616 9.75 13.9718 9.75 14.1528V20.25H14.25Z"></path></g></symbol><symbol id="subscriptions-outline" width="24" height="24" viewBox="0 0 24 24" xmlns="http://www.w3.org/2000/svg"><path d="M10.54 18.2L15.14 15.15C15.25 15.08 15.3 14.98 15.3 14.85C15.3 14.72 15.25 14.62 15.14 14.55L10.54 11.5C10.47 11.45 10.4 11.43 10.34 11.43C10.29 11.43 10.24 11.44 10.18 11.47C10.05 11.54 10 11.63 10 11.77V17.92C10 18.06 10.06 18.16 10.18 18.22C10.3 18.29 10.41 18.28 10.53 18.19L10.54 18.2Z"></path><path d="M15.85 2H7.85C7.61 2 7.41 2.08 7.24 2.24C7.08 2.4 7 2.6 7 2.85C7 3.09 7.08 3.29 7.24 3.46C7.4 3.62 7.6 3.7 7.85 3.7H15.85C16.09 3.69 16.29 3.62 16.46 3.46C16.62 3.3 16.7 3.1 16.7 2.85C16.7 2.61 16.62 2.41 16.46 2.24C16.3 2.08 16.1 2 15.85 2Z"></path><path d="M18.85 5H4.85C4.61 5 4.41 5.08 4.24 5.24C4.08 5.4 4 5.6 4 5.85C4 6.09 4.08 6.29 4.24 6.46C4.4 6.62 4.6 6.7 4.85 6.7H18.85C19.09 6.7 19.29 6.62 19.45 6.46C19.61 6.3 19.69 6.1 19.69 5.85C19.69 5.61 19.61 5.41 19.45 5.24C19.29 5.08 19.09 5 18.84 5H18.85Z"></path><path d="M2 19.85C2 20.36 2.18 20.79 2.54 21.16C2.91 21.53 3.33 21.7 3.85 21.7H19.85C20.36 21.7 20.79 21.52 21.15 21.16C21.52 20.79 21.69 20.37 21.69 19.85V9.85C21.69 9.34 21.51 8.91 21.15 8.54C20.78 8.17 20.36 8 19.84 8H3.85C3.34 8 2.91 8.18 2.54 8.54C2.17 8.91 2 9.33 2 9.85V19.85ZM3.7 10.21C3.7 9.93 3.93 9.7 4.21 9.7H19.48C19.76 9.7 19.99 9.93 19.99 10.21V19.48C19.99 19.76 19.76 19.99 19.48 19.99H4.21C3.93 19.99 3.7 19.76 3.7 19.48V10.21Z"></path></symbol><symbol id="telegram" width="40" height="40" viewBox="0 0 40 40" xmlns="http://www.w3.org/2000/svg"><path fill-rule="evenodd" clip-rule="evenodd" d="M20 40C8.95431 40 0 31.0457 0 20C0 8.95431 8.95431 0 20 0C31.0457 0 40 8.95431 40 20C40 31.0457 31.0457 40 20 40ZM20.8648 15.0092C19.0736 15.7543 15.4936 17.2963 10.1249 19.6354C9.2531 19.9821 8.79642 20.3212 8.75485 20.6528C8.68458 21.2133 9.38643 21.434 10.3422 21.7345C10.4722 21.7754 10.6069 21.8177 10.745 21.8626C11.6853 22.1683 12.9501 22.5259 13.6077 22.5401C14.2042 22.553 14.8699 22.3071 15.6049 21.8024C20.621 18.4163 23.2104 16.7049 23.3729 16.668C23.4876 16.6419 23.6465 16.6092 23.7542 16.7049C23.8619 16.8006 23.8513 16.9819 23.8399 17.0305C23.7704 17.3269 21.0154 19.8882 19.5896 21.2137C19.1452 21.6269 18.8299 21.92 18.7654 21.987C18.6211 22.1369 18.4739 22.2788 18.3325 22.4151C17.459 23.2572 16.8039 23.8887 18.3688 24.92C19.1208 25.4156 19.7226 25.8254 20.323 26.2342C20.9786 26.6807 21.6326 27.1261 22.4787 27.6807C22.6942 27.822 22.9001 27.9688 23.1006 28.1118C23.8637 28.6557 24.5492 29.1444 25.3961 29.0665C25.8882 29.0212 26.3965 28.5585 26.6546 27.1784C27.2647 23.9169 28.464 16.8501 28.7411 13.9381C28.7654 13.6829 28.7348 13.3564 28.7103 13.2131C28.6858 13.0698 28.6345 12.8655 28.4482 12.7144C28.2276 12.5353 27.8869 12.4976 27.7346 12.5001C27.0419 12.5125 25.9792 12.882 20.8648 15.0092Z"></path></symbol><symbol id="search-filled" width="24" height="24" viewBox="0 0 24 24" xmlns="http://www.w3.org/2000/svg"><g><g><path fill-rule="evenodd" clip-rule="evenodd" d="M16.433 3.07777C12.3259 2.42299 8.46568 5.22165 7.81091 9.32875C7.15613 13.4358 9.95479 17.2961 14.0619 17.9509C15.7662 18.2226 17.4279 17.8996 18.8358 17.1353L21.9614 21.5942C22.2467 22.0012 22.8079 22.0999 23.2149 21.8146C23.622 21.5293 23.7206 20.968 23.4353 20.561L20.3045 16.0945C21.532 14.9835 22.4031 13.4622 22.684 11.6999C23.3388 7.5928 20.5401 3.73254 16.433 3.07777ZM9.58846 9.61213C10.0867 6.48675 13.0243 4.35705 16.1497 4.85532C19.275 5.35358 21.4047 8.29113 20.9065 11.4165C20.4082 14.5419 17.4707 16.6716 14.3453 16.1733C11.2199 15.6751 9.09019 12.7375 9.58846 9.61213Z"></path><path d="M1.572 3.51992C1.07494 3.51992 0.671997 3.92287 0.671997 4.41992C0.671997 4.91698 1.07494 5.31992 1.572 5.31992H6.54514C7.0422 5.31992 7.44514 4.91698 7.44514 4.41992C7.44514 3.92287 7.0422 3.51992 6.54514 3.51992H1.572Z"></path><path d="M0.671997 10.3613C0.671997 9.86427 1.07494 9.46133 1.572 9.46133H4.88743C5.38448 9.46133 5.78743 9.86427 5.78743 10.3613C5.78743 10.8584 5.38448 11.2613 4.88743 11.2613H1.572C1.07494 11.2613 0.671997 10.8584 0.671997 10.3613Z"></path><path d="M1.572 15.4027C1.07494 15.4027 0.671997 15.8057 0.671997 16.3027C0.671997 16.7998 1.07494 17.2027 1.572 17.2027H6.54514C7.0422 17.2027 7.44514 16.7998 7.44514 16.3027C7.44514 15.8057 7.0422 15.4027 6.54514 15.4027H1.572Z"></path></g></g></symbol><symbol id="subscriptions-filled" width="24" height="24" viewBox="0 0 24 24" xmlns="http://www.w3.org/2000/svg"><g><path d="M4 22C3.45 22 2.97933 21.8043 2.588 21.413C2.19667 21.0217 2.00067 20.5507 2 20V10C2 9.45 2.196 8.97933 2.588 8.588C2.98 8.19667 3.45067 8.00067 4 8H20C20.55 8 21.021 8.196 21.413 8.588C21.805 8.98 22.0007 9.45067 22 10V20C22 20.55 21.8043 21.021 21.413 21.413C21.0217 21.805 20.5507 22.0007 20 22H4ZM10.775 18.475L15.375 15.425C15.525 15.325 15.6 15.1833 15.6 15C15.6 14.8167 15.525 14.675 15.375 14.575L10.775 11.525C10.6083 11.4083 10.4373 11.3957 10.262 11.487C10.0867 11.5783 9.99933 11.7243 10 11.925V18.075C10 18.275 10.0877 18.421 10.263 18.513C10.4383 18.605 10.609 18.5923 10.775 18.475ZM5 7C4.71667 7 4.47933 6.904 4.288 6.712C4.09667 6.52 4.00067 6.28267 4 6C4 5.71667 4.096 5.47933 4.288 5.288C4.48 5.09667 4.71733 5.00067 5 5H19C19.2833 5 19.521 5.096 19.713 5.288C19.905 5.48 20.0007 5.71733 20 6C20 6.28333 19.904 6.521 19.712 6.713C19.52 6.905 19.2827 7.00067 19 7H5ZM8 4C7.71667 4 7.47933 3.904 7.288 3.712C7.09667 3.52 7.00067 3.28267 7 3C7 2.71667 7.096 2.47933 7.288 2.288C7.48 2.09667 7.71733 2.00067 8 2H16C16.2833 2 16.521 2.096 16.713 2.288C16.905 2.48 17.0007 2.71733 17 3C17 3.28333 16.904 3.521 16.712 3.713C16.52 3.905 16.2827 4.00067 16 4H8Z"></path></g></symbol><symbol id="play" width="15" height="21" viewBox="0 0 15 21" xmlns="http://www.w3.org/2000/svg"><path d="M13.4934 9.36653C14.8989 10.1788 14.904 11.2006 13.4934 12.1189L2.59358 19.7422C1.22404 20.5001 0.293887 20.0526 0.196247 18.4126L0.149996 2.45717C0.119162 0.946473 1.31911 0.51965 2.46254 1.24396L13.4934 9.36653Z"></path></symbol><symbol id="tik_tok" width="40" height="40" viewBox="0 0 40 40" xmlns="http://www.w3.org/2000/svg"><path fill-rule="evenodd" clip-rule="evenodd" d="M20 0C8.95432 0 0 8.95431 0 20C0 31.0457 8.95432 40 20 40C31.0457 40 40 31.0457 40 20C40 8.95431 31.0457 0 20 0ZM23.8978 10C23.8978 10.2972 23.9256 10.5899 23.9767 10.8731C24.2226 12.1826 24.9976 13.3063 26.074 14.0074C26.8256 14.4996 27.7164 14.7829 28.6768 14.7829L28.6767 15.5491V18.2191C26.895 18.2191 25.2433 17.648 23.8977 16.6821V23.6707C23.8977 27.1581 21.0583 30 17.5739 30C16.2284 30 14.9756 29.5727 13.9502 28.8529C12.3171 27.706 11.25 25.8114 11.25 23.6707C11.25 20.1787 14.0849 17.3416 17.5692 17.3461C17.8616 17.3461 18.1446 17.3694 18.423 17.4066V18.2191L18.4128 18.224L18.4229 18.2238V20.9171C18.1538 20.8335 17.8662 20.7824 17.5692 20.7824C15.9778 20.7824 14.6833 22.078 14.6833 23.6707C14.6833 24.7806 15.3143 25.7418 16.233 26.2294C16.2416 26.2411 16.2503 26.2528 16.259 26.2644L16.2744 26.2847C16.2638 26.2643 16.2516 26.2443 16.2377 26.2247C16.6413 26.4383 17.096 26.5591 17.5785 26.5591C19.1328 26.5591 20.4041 25.3193 20.4597 23.7776L20.4644 10H23.8978Z"></path></symbol><symbol id="youtube" width="40" height="40" viewBox="0 0 40 40" xmlns="http://www.w3.org/2000/svg"><path d="M23.25 20L18 17V23L23.25 20Z"></path><path fill-rule="evenodd" clip-rule="evenodd" d="M0 20C0 8.95431 8.95431 0 20 0C31.0457 0 40 8.95431 40 20C40 31.0457 31.0457 40 20 40C8.95431 40 0 31.0457 0 20ZM27.75 13.375C28.625 13.625 29.25 14.25 29.5 15.125C30 16.75 30 20 30 20C30 20 30 23.25 29.625 24.875C29.375 25.75 28.75 26.375 27.875 26.625C26.25 27 20 27 20 27C20 27 13.625 27 12.125 26.625C11.25 26.375 10.625 25.75 10.375 24.875C10 23.25 10 20 10 20C10 20 10 16.75 10.25 15.125C10.5 14.25 11.125 13.625 12 13.375C13.625 13 19.875 13 19.875 13C19.875 13 26.25 13 27.75 13.375Z"></path></symbol><symbol id="search-outline" width="24" height="24" viewBox="0 0 24 24" xmlns="http://www.w3.org/2000/svg"><g><g><path fill-rule="evenodd" clip-rule="evenodd" d="M16.433 3.07777C12.3259 2.42299 8.46568 5.22165 7.81091 9.32875C7.15613 13.4358 9.95479 17.2961 14.0619 17.9509C15.7662 18.2226 17.4279 17.8996 18.8358 17.1353L21.9614 21.5942C22.2467 22.0012 22.8079 22.0999 23.2149 21.8146C23.622 21.5293 23.7206 20.968 23.4353 20.561L20.3045 16.0945C21.532 14.9835 22.4031 13.4622 22.684 11.6999C23.3388 7.5928 20.5401 3.73254 16.433 3.07777ZM9.58846 9.61213C10.0867 6.48675 13.0243 4.35705 16.1497 4.85532C19.275 5.35358 21.4047 8.29113 20.9065 11.4165C20.4082 14.5419 17.4707 16.6716 14.3453 16.1733C11.2199 15.6751 9.09019 12.7375 9.58846 9.61213Z"></path><path d="M1.572 3.51992C1.07494 3.51992 0.671997 3.92287 0.671997 4.41992C0.671997 4.91698 1.07494 5.31992 1.572 5.31992H6.54514C7.0422 5.31992 7.44514 4.91698 7.44514 4.41992C7.44514 3.92287 7.0422 3.51992 6.54514 3.51992H1.572Z"></path><path d="M0.671997 10.3613C0.671997 9.86427 1.07494 9.46133 1.572 9.46133H4.88743C5.38448 9.46133 5.78743 9.86427 5.78743 10.3613C5.78743 10.8584 5.38448 11.2613 4.88743 11.2613H1.572C1.07494 11.2613 0.671997 10.8584 0.671997 10.3613Z"></path><path d="M1.572 15.4027C1.07494 15.4027 0.671997 15.8057 0.671997 16.3027C0.671997 16.7998 1.07494 17.2027 1.572 17.2027H6.54514C7.0422 17.2027 7.44514 16.7998 7.44514 16.3027C7.44514 15.8057 7.0422 15.4027 6.54514 15.4027H1.572Z"></path></g></g></symbol><symbol id="instagram" width="40" height="40" viewBox="0 0 40 40" xmlns="http://www.w3.org/2000/svg"><path d="M20 23.5C18.125 23.5 16.5 22 16.5 20C16.5 18.125 18 16.5 20 16.5C21.875 16.5 23.5 18 23.5 20C23.5 21.875 21.875 23.5 20 23.5Z"></path><path fill-rule="evenodd" clip-rule="evenodd" d="M24.25 11.5H15.75C14.75 11.625 14.25 11.75 13.875 11.875C13.375 12 13 12.25 12.625 12.625C12.3283 12.9217 12.1881 13.2185 12.0186 13.5771C11.9739 13.6717 11.9271 13.7707 11.875 13.875C11.8557 13.933 11.8333 13.994 11.8094 14.0594C11.6786 14.4167 11.5 14.9047 11.5 15.75V24.25C11.625 25.25 11.75 25.75 11.875 26.125C12 26.625 12.25 27 12.625 27.375C12.9217 27.6717 13.2185 27.8119 13.5771 27.9814C13.6717 28.0261 13.7706 28.0728 13.875 28.125C13.933 28.1443 13.994 28.1667 14.0594 28.1906C14.4167 28.3214 14.9047 28.5 15.75 28.5H24.25C25.25 28.375 25.75 28.25 26.125 28.125C26.625 28 27 27.75 27.375 27.375C27.6717 27.0783 27.8119 26.7815 27.9814 26.4229C28.0261 26.3283 28.0728 26.2293 28.125 26.125C28.1443 26.067 28.1667 26.006 28.1906 25.9406C28.3214 25.5833 28.5 25.0953 28.5 24.25V15.75C28.375 14.75 28.25 14.25 28.125 13.875C28 13.375 27.75 13 27.375 12.625C27.0783 12.3283 26.7815 12.1881 26.4229 12.0186C26.3284 11.974 26.2292 11.9271 26.125 11.875C26.067 11.8557 26.006 11.8333 25.9406 11.8094C25.5833 11.6786 25.0953 11.5 24.25 11.5ZM20 14.625C17 14.625 14.625 17 14.625 20C14.625 23 17 25.375 20 25.375C23 25.375 25.375 23 25.375 20C25.375 17 23 14.625 20 14.625ZM26.75 14.5C26.75 15.1904 26.1904 15.75 25.5 15.75C24.8096 15.75 24.25 15.1904 24.25 14.5C24.25 13.8096 24.8096 13.25 25.5 13.25C26.1904 13.25 26.75 13.8096 26.75 14.5Z"></path><path fill-rule="evenodd" clip-rule="evenodd" d="M0 20C0 8.95431 8.95431 0 20 0C31.0457 0 40 8.95431 40 20C40 31.0457 31.0457 40 20 40C8.95431 40 0 31.0457 0 20ZM15.75 9.625H24.25C25.375 9.75 26.125 9.875 26.75 10.125C27.5 10.5 28 10.75 28.625 11.375C29.25 12 29.625 12.625 29.875 13.25C30.125 13.875 30.375 14.625 30.375 15.75V24.25C30.25 25.375 30.125 26.125 29.875 26.75C29.5 27.5 29.25 28 28.625 28.625C28 29.25 27.375 29.625 26.75 29.875C26.125 30.125 25.375 30.375 24.25 30.375H15.75C14.625 30.25 13.875 30.125 13.25 29.875C12.5 29.5 12 29.25 11.375 28.625C10.75 28 10.375 27.375 10.125 26.75C9.875 26.125 9.625 25.375 9.625 24.25V15.75C9.75 14.625 9.875 13.875 10.125 13.25C10.5 12.5 10.75 12 11.375 11.375C12 10.75 12.625 10.375 13.25 10.125C13.875 9.875 14.625 9.625 15.75 9.625Z"></path><path d="M39.6407 1.69002L38.2607 2.47002V2.31002L39.6407 3.09002L39.4107 3.51002L38.0507 2.72002L38.1607 2.67002V4.20002H37.7007L37.7107 2.67002L37.8107 2.72002L36.4607 3.51002L36.2207 3.09002L37.6107 2.31002V2.47002L36.2207 1.69002L36.4607 1.27002L37.8107 2.06002L37.7107 2.11002L37.7007 0.580017H38.1607V2.11002L38.0507 2.06002L39.4107 1.27002L39.6407 1.69002Z"></path></symbol><symbol id="vk" width="40" height="40" viewBox="0 0 40 40" xmlns="http://www.w3.org/2000/svg"><path d="M13.3733 16.0866C13.48 21.2866 16.08 24.4066 20.64 24.4066H20.9067V21.4333C22.58 21.6 23.8467 22.8266 24.3533 24.4066H26.72C26.4773 23.5088 26.047 22.6727 25.4574 21.9533C24.8679 21.2339 24.1326 20.6477 23.3 20.2333C24.0461 19.779 24.6905 19.1756 25.1929 18.461C25.6953 17.7464 26.045 16.9358 26.22 16.08H24.0733C23.6067 17.7333 22.22 19.2333 20.9067 19.3733V16.0866H18.7533V21.8466C17.42 21.5133 15.74 19.9 15.6667 16.0866H13.3733Z"></path><path fill-rule="evenodd" clip-rule="evenodd" d="M20 0C31.0457 0 40 8.95431 40 20C40 31.0457 31.0457 40 20 40C8.95431 40 0 31.0457 0 20C0 8.95431 8.95431 0 20 0ZM10 19.6C10 15.0733 10 12.8133 11.4 11.4C12.82 10 15.08 10 19.6 10H20.4C24.9267 10 27.1867 10 28.6 11.4C30 12.82 30 15.08 30 19.6V20.4C30 24.9267 30 27.1867 28.6 28.6C27.18 30 24.92 30 20.4 30H19.6C15.0733 30 12.8133 30 11.4 28.6C10 27.18 10 24.92 10 20.4V19.6Z"></path></symbol><symbol id="twitter" width="40" height="40" viewBox="0 0 40 40" xmlns="http://www.w3.org/2000/svg"><path fill-rule="evenodd" clip-rule="evenodd" d="M0 20C0 8.95431 8.95431 0 20 0C31.0457 0 40 8.95431 40 20C40 31.0457 31.0457 40 20 40C8.95431 40 0 31.0457 0 20ZM27.625 14.375C28.5 14.25 29.25 14.125 30 13.75C29.5 14.625 28.75 15.375 27.875 15.875C28.125 21.75 23.875 28.125 16.25 28.125C14 28.125 11.875 27.375 10 26.25C12.125 26.5 14.375 25.875 15.875 24.75C14 24.75 12.5 23.5 12 21.875C12.625 22 13.25 21.875 13.875 21.75C12 21.25 10.625 19.5 10.625 17.625C11.25 17.875 11.875 18.125 12.5 18.125C10.75 16.875 10.125 14.5 11.25 12.625C13.375 15.125 16.375 16.75 19.75 16.875C19.125 14.375 21.125 11.875 23.75 11.875C24.875 11.875 26 12.375 26.75 13.125C27.75 12.875 28.625 12.625 29.375 12.125C29.125 13.125 28.5 13.875 27.625 14.375Z"></path></symbol></svg>