<?xml version="1.0" encoding="UTF-8" standalone="no"?><svg xmlns="http://www.w3.org/2000/svg" xmlns:xlink="http://www.w3.org/1999/xlink"><symbol id="check-filled" width="24" height="24" viewBox="0 0 24 24" fill="none" xmlns="http://www.w3.org/2000/svg"><path fill-rule="evenodd" clip-rule="evenodd" d="M2.40002 12C2.40002 6.69807 6.69809 2.4 12 2.4C17.302 2.4 21.6 6.69807 21.6 12C21.6 17.3019 17.302 21.6 12 21.6C6.69809 21.6 2.40002 17.3019 2.40002 12ZM17.0486 10.4485C17.5172 9.9799 17.5172 9.2201 17.0486 8.75147C16.5799 8.28284 15.8201 8.28284 15.3515 8.75147L10.8 13.3029L9.24855 11.7515C8.77992 11.2828 8.02013 11.2828 7.5515 11.7515C7.08287 12.2201 7.08287 12.9799 7.5515 13.4485L9.9515 15.8485C10.4201 16.3172 11.1799 16.3172 11.6486 15.8485L17.0486 10.4485Z" fill="#A1D6BC"></path></symbol><symbol id="afi-logo-small" width="26" height="26" viewBox="0 0 26 26" fill="none" xmlns="http://www.w3.org/2000/svg"><path d="M23.1091 0C24.4179 0 25.48 1.0623 25.48 2.3712C25.48 3.68011 24.4179 4.74241 23.1091 4.74241C21.8004 4.74241 20.7383 3.68011 20.7383 2.3712C20.7383 1.0623 21.7966 0 23.1091 0Z" fill="#FFDB3C"></path><path d="M11.7405 1.99553C5.25761 1.99553 0 7.25011 0 13.7377C0 20.2253 5.25382 25.4799 11.7405 25.4799C18.2233 25.4799 23.481 20.2253 23.481 13.7377C23.4468 7.21976 18.1892 1.96138 11.7405 1.99553ZM11.7405 20.7148C7.88642 20.7148 4.76068 17.5886 4.76068 13.7339C4.76068 9.8793 7.88642 6.75311 11.7405 6.75311C15.5945 6.75311 18.7203 9.8793 18.7203 13.7339C18.7203 17.5886 15.5945 20.7148 11.7405 20.7148Z" fill="#FFDB3C"></path><path d="M23.4842 13.7304C23.4539 7.2162 18.1963 1.95782 11.7437 1.98817C10.5299 1.98817 9.36151 2.17028 8.26143 2.51173L6.41406 9.21939C7.69622 7.70941 9.60429 6.74575 11.74 6.74575C15.594 6.74575 18.7198 9.87194 18.7198 13.7266C18.7198 15.2403 18.2342 16.6403 17.4186 17.7861L23.4728 14.0491C23.4766 13.9428 23.4842 13.8366 23.4842 13.7304Z" fill="#E6A500"></path></symbol><symbol id="afi-logo-big" width="143" height="40" viewBox="0 0 143 40" fill="none" xmlns="http://www.w3.org/2000/svg"><g clip-path="url(#clip0_3583_4820)"><path d="M41.1523 18.3472L45.7734 6.93677H48.927L53.4856 18.3472H50.4882L49.4578 15.5897H45.0865L44.0561 18.3472H41.1523ZM45.8983 13.3393H48.6148L47.2721 9.69429L45.8983 13.3393Z" fill="#202020"></path><path d="M55.0781 18.3472V6.93677H60.8232C61.6038 6.93677 62.2908 7.09525 62.884 7.4122C63.4772 7.72916 63.9456 8.1412 64.2891 8.71173C64.6325 9.25056 64.7886 9.88447 64.7886 10.5818C64.7886 11.3108 64.6013 11.9447 64.1954 12.5152C63.8207 13.0857 63.2899 13.4978 62.6654 13.8147L65.1321 18.3789H62.041L59.949 14.1951H57.857V18.3472H55.0781ZM57.8258 11.913H60.5422C60.9794 11.913 61.3228 11.7862 61.5726 11.5643C61.8224 11.3108 61.9785 11.0255 61.9785 10.6452C61.9785 10.2648 61.8536 9.94786 61.5726 9.72599C61.3228 9.47242 60.9794 9.37734 60.5422 9.37734H57.8258V11.913Z" fill="#202020"></path><path d="M82.0864 18.3472V6.93677H91.0163V9.37734H84.8341V11.501H88.9556V13.8464H84.8341V18.3472H82.0864Z" fill="#202020"></path><path d="M106.222 18.3472V6.93677H111.967C112.747 6.93677 113.434 7.09525 114.028 7.4122C114.621 7.72916 115.089 8.1412 115.433 8.71173C115.776 9.25056 115.932 9.88447 115.932 10.5818C115.932 11.3108 115.745 11.9447 115.339 12.5152C114.964 13.0857 114.433 13.4978 113.809 13.8147L116.276 18.3789H113.185L111.093 14.1951H109.001V18.3472H106.222ZM109.001 11.913H111.717C112.154 11.913 112.498 11.7862 112.747 11.5643C112.997 11.3108 113.153 11.0255 113.153 10.6452C113.153 10.2648 113.028 9.94786 112.747 9.72599C112.498 9.47242 112.154 9.37734 111.717 9.37734H109.001V11.913Z" fill="#202020"></path><path d="M98.0726 9.21888C99.9148 9.21888 101.445 10.7403 101.445 12.642C101.445 14.5438 99.946 16.0652 98.0726 16.0652C96.2304 16.0652 94.7004 14.5438 94.7004 12.642C94.7004 10.7403 96.1992 9.21888 98.0726 9.21888ZM98.0726 6.58813C94.7629 6.58813 92.1089 9.31397 92.1089 12.642C92.1089 16.0018 94.7941 18.6959 98.0726 18.6959C101.382 18.6959 104.036 15.9701 104.036 12.642C104.036 9.28227 101.351 6.58813 98.0726 6.58813Z" fill="#202020"></path><path d="M42.1826 35.4629V24.0525H44.9303V35.4629H42.1826Z" fill="#202020"></path><path d="M47.3657 35.4629V24.0525H49.9573L55.0779 30.6769V24.0525H57.8256V35.4629H55.234L49.9573 28.585V35.4629H47.3657Z" fill="#202020"></path><path d="M63.4773 35.4629V26.5248H59.793V24.0525H69.9094V26.5248H66.225V35.4629H63.4773Z" fill="#202020"></path><path d="M71.876 35.4629V24.0525H77.6211C78.4017 24.0525 79.0886 24.211 79.6818 24.5279C80.2751 24.8449 80.7435 25.2569 81.0869 25.8274C81.4304 26.3663 81.5865 27.0002 81.5865 27.6975C81.5865 28.4265 81.3991 29.0604 80.9932 29.6309C80.6186 30.2015 80.0878 30.6135 79.4633 30.9305L81.9299 35.4946H78.8388L76.7468 31.3108H74.6549V35.4629H71.876ZM74.6549 29.0287H77.3713C77.8084 29.0287 78.1519 28.9019 78.4017 28.6801C78.6515 28.4265 78.8076 28.1412 78.8076 27.7609C78.8076 27.3805 78.6827 27.0636 78.4017 26.8417C78.1519 26.5881 77.8084 26.4931 77.3713 26.4931H74.6549V29.0287Z" fill="#202020"></path><path d="M100.009 35.4629L95.4502 24.0525H98.4476L101.632 32.5469L104.911 24.0525H107.783L103.162 35.4629H100.009Z" fill="#202020"></path><path d="M109.344 35.4629V24.0525H118.212V26.4931H112.092V28.5533H116.12V30.8988H112.092V33.0541H118.274V35.4946H109.344V35.4629Z" fill="#202020"></path><path d="M121.022 35.4629V24.0525H126.767C127.548 24.0525 128.235 24.211 128.828 24.5279C129.421 24.8449 129.889 25.2569 130.233 25.8274C130.576 26.3663 130.732 27.0002 130.732 27.6975C130.732 28.4265 130.545 29.0604 130.139 29.6309C129.765 30.2015 129.234 30.6135 128.609 30.9305L131.076 35.4946H128.016L125.893 31.3108H123.801V35.4629H121.022ZM123.801 29.0287H126.517C126.954 29.0287 127.298 28.9019 127.548 28.6801C127.797 28.4265 127.954 28.1412 127.954 27.7609C127.954 27.3805 127.829 27.0636 127.548 26.8417C127.298 26.5881 126.954 26.4931 126.517 26.4931H123.801V29.0287Z" fill="#202020"></path><path d="M135.978 35.4629V26.5248H132.293V24.0525H142.41V26.5248H138.725V35.4629H135.978Z" fill="#202020"></path><path d="M89.0804 26.3346C90.9226 26.3346 92.4525 27.856 92.4525 29.7577C92.4525 31.6278 90.9538 33.1809 89.0804 33.1809C87.2382 33.1809 85.7082 31.6595 85.7082 29.7577C85.7082 27.856 87.207 26.3346 89.0804 26.3346ZM89.0804 23.7039C85.7707 23.7039 83.1167 26.4297 83.1167 29.7577C83.1167 33.0858 85.8019 35.8116 89.0804 35.8116C92.3901 35.8116 95.0441 33.0858 95.0441 29.7577C95.0441 26.4297 92.3588 23.7039 89.0804 23.7039Z" fill="#202020"></path><path d="M70.0027 18.3472V9.40903H66.3184V6.93677H76.4348V9.40903H72.7504V18.3472H70.0027Z" fill="#202020"></path><path d="M33.1592 1.19995C35.0326 1.19995 36.5626 2.75304 36.5626 4.65478C36.5626 6.55653 35.0326 8.10962 33.1592 8.10962C31.2858 8.10962 29.7559 6.55653 29.7559 4.65478C29.7559 2.75304 31.2858 1.19995 33.1592 1.19995Z" fill="#FFDB3C"></path><path d="M16.8607 4.11587C7.55609 4.11587 0 11.7862 0 21.2316C0 30.6769 7.55609 38.3473 16.8607 38.3473C26.1653 38.3473 33.7214 30.6769 33.7214 21.2316C33.6589 11.7228 26.1028 4.05248 16.8607 4.11587ZM16.8607 31.3742C11.3341 31.3742 6.83795 26.81 6.83795 21.1999C6.83795 15.5897 11.3029 11.0255 16.8607 11.0255C22.4185 11.0255 26.8522 15.5897 26.8522 21.1999C26.8522 26.81 22.3873 31.3742 16.8607 31.3742Z" fill="#FFDB3C"></path><path d="M33.6902 21.1999C33.6589 11.7228 26.1028 4.05248 16.8607 4.11587C15.1122 4.11587 13.4573 4.36943 11.8649 4.87657L9.21094 14.6389C11.0531 12.4201 13.8008 11.0255 16.8607 11.0255C22.3873 11.0255 26.8834 15.5897 26.8834 21.1999C26.8834 23.4186 26.1965 25.4471 25.01 27.127L33.6902 21.6753C33.6902 21.5168 33.6902 21.3583 33.6902 21.1999Z" fill="#E6A500"></path></g><defs><clipPath><rect width="142.667" height="40" fill="white"></rect></clipPath></defs></symbol><symbol id="heart" width="16" height="16" viewBox="0 0 16 16" fill="none" xmlns="http://www.w3.org/2000/svg"><g clip-path="url(#clip0_694_9498)"><path fill-rule="evenodd" clip-rule="evenodd" d="M8.00183 15.5218L7.99692 15.5218C7.35348 15.5209 6.72516 15.323 6.19342 14.9537C3.97489 13.4178 2.91624 12.2929 2.2722 11.4928C0.936871 9.83342 0.185965 7.96647 0.206464 5.86857C0.235545 2.94523 2.54097 0.478271 5.4762 0.478271C6.48781 0.478271 7.33792 0.821098 8.00884 1.24834C8.67092 0.821689 9.51399 0.478271 10.5236 0.478271C13.459 0.478271 15.7643 2.94493 15.7934 5.8684C15.8139 7.96694 15.0624 9.83394 13.7281 11.4925L13.7276 11.4931C13.0834 12.2935 12.0242 13.4189 9.80391 14.9557C9.27236 15.324 8.64459 15.5212 8.00183 15.5218ZM8.14024 4.38959C8.12558 4.40681 8.10746 4.42062 8.08711 4.43008C8.06676 4.43954 8.04465 4.44444 8.02228 4.44444C7.99992 4.44444 7.97781 4.43954 7.95746 4.43008C7.93711 4.42062 7.91899 4.40681 7.90433 4.38959C7.44135 3.84053 6.62401 2.90235 5.4762 2.90235C3.8977 2.90235 2.60016 4.24367 2.58376 5.89272C2.5697 7.33175 3.06835 8.66059 4.10992 9.95492C4.59867 10.5621 5.48479 11.5333 7.53121 12.9498C7.66935 13.0459 7.83267 13.0975 7.99992 13.0977C8.16714 13.0976 8.33046 13.0461 8.46863 12.9501C10.515 11.5336 11.4012 10.5624 11.8899 9.95519C12.931 8.66112 13.4301 7.33228 13.4161 5.89298C13.3997 4.24367 12.1021 2.90235 10.5236 2.90235C9.39243 2.90235 8.62565 3.81307 8.16053 4.36551C8.1537 4.37361 8.14694 4.38164 8.14024 4.38959Z" fill="#FCECEC"></path><path d="M7.99995 13.0977C7.8327 13.0975 7.66938 13.0459 7.53124 12.9498C5.48482 11.5333 4.5987 10.5621 4.10994 9.95492C3.06838 8.66059 2.56972 7.33174 2.58379 5.89271C2.60019 4.24367 3.89773 2.90234 5.47622 2.90234C6.62403 2.90234 7.44138 3.84053 7.90435 4.38959C7.91902 4.4068 7.93714 4.42061 7.95749 4.43007C7.97784 4.43953 7.99995 4.44443 8.02231 4.44443C8.04468 4.44443 8.06678 4.43953 8.08713 4.43007C8.10748 4.42061 8.1256 4.4068 8.14027 4.38959C8.60325 3.83999 9.37586 2.90234 10.5237 2.90234C12.1022 2.90234 13.3997 4.24367 13.4161 5.89298C13.4302 7.33227 12.931 8.66112 11.8899 9.95518C11.4012 10.5624 10.5151 11.5336 8.46865 12.9501C8.33048 13.0461 8.16717 13.0975 7.99995 13.0977Z" fill="#FF453A"></path><path fill-rule="evenodd" clip-rule="evenodd" d="M8.00113 14.3097L7.99868 14.3097C7.59333 14.3092 7.19751 14.1845 6.86258 13.9517C4.73011 12.4756 3.75773 11.4275 3.19131 10.7239C2.00287 9.247 1.37809 7.6491 1.39537 5.88064C1.41811 3.59445 3.21959 1.69031 5.47645 1.69031C6.56642 1.69031 7.42255 2.23168 8.01483 2.76069C8.59259 2.23358 9.43396 1.69031 10.5239 1.69031C12.7808 1.69031 14.5822 3.5943 14.605 5.88069C14.6223 7.64961 13.9969 9.24753 12.8092 10.7239C12.2428 11.4276 11.2702 12.4759 9.13764 13.9521C8.80254 14.1848 8.40657 14.3094 8.00113 14.3097ZM8.1405 4.38959C8.12584 4.40681 8.10771 4.42061 8.08736 4.43008C8.06701 4.43954 8.04491 4.44443 8.02254 4.44443C8.00018 4.44443 7.97807 4.43954 7.95772 4.43008C7.93737 4.42061 7.91925 4.40681 7.90459 4.38959C7.44161 3.84053 6.62426 2.90235 5.47645 2.90235C3.89796 2.90235 2.60042 4.24367 2.58402 5.89271C2.56995 7.33174 3.06861 8.66059 4.11018 9.95492C4.59893 10.5621 5.48505 11.5333 7.53147 12.9498C7.66961 13.0459 7.83293 13.0975 8.00018 13.0977C8.1674 13.0975 8.33072 13.0461 8.46888 12.9501C10.5153 11.5336 11.4014 10.5624 11.8902 9.95518C12.9312 8.66112 13.4304 7.33227 13.4163 5.89298C13.3999 4.24367 12.1024 2.90235 10.5239 2.90235C9.39269 2.90235 8.62591 3.81307 8.16078 4.3655C8.15396 4.37361 8.1472 4.38164 8.1405 4.38959Z" fill="#FFA6A0"></path><path d="M7.99995 13.0977C7.8327 13.0975 7.66938 13.0459 7.53124 12.9498C5.48482 11.5333 4.5987 10.5621 4.10994 9.95492C3.06838 8.66059 2.56972 7.33174 2.58379 5.89271C2.60019 4.24367 3.89773 2.90234 5.47622 2.90234C6.62403 2.90234 7.44138 3.84053 7.90435 4.38959C7.91902 4.4068 7.93714 4.42061 7.95749 4.43007C7.97784 4.43953 7.99995 4.44443 8.02231 4.44443C8.04468 4.44443 8.06678 4.43953 8.08713 4.43007C8.10748 4.42061 8.1256 4.4068 8.14027 4.38959C8.60325 3.83999 9.37586 2.90234 10.5237 2.90234C12.1022 2.90234 13.3997 4.24367 13.4161 5.89298C13.4302 7.33227 12.931 8.66112 11.8899 9.95518C11.4012 10.5624 10.5151 11.5336 8.46865 12.9501C8.33048 13.0461 8.16717 13.0975 7.99995 13.0977Z" fill="#FF3B2F"></path></g><defs><clipPath><rect width="16" height="16" fill="white"></rect></clipPath></defs></symbol></svg>