<svg width="24" height="24" viewBox="0 0 24 24" fill="none" xmlns="http://www.w3.org/2000/svg">
<g id="book_outline">
<path id="Union" fill-rule="evenodd" clip-rule="evenodd" d="M1.65002 4.86857C1.65002 3.84842 2.47702 3.02142 3.49717 3.02142H7.71365C9.07648 3.02142 10.3835 3.56281 11.3472 4.52648L11.5172 4.69651C11.5834 4.67739 11.6534 4.66714 11.7257 4.66714C11.7981 4.66714 11.8681 4.67739 11.9343 4.69651L12.1043 4.52648C13.068 3.56281 14.375 3.02142 15.7378 3.02142H20.5029C21.523 3.02142 22.35 3.84842 22.35 4.86857V16.3886C22.35 17.4087 21.523 18.2357 20.5029 18.2357H16.2864C15.3214 18.2357 14.3959 18.6191 13.7135 19.3014L12.2561 20.7589C12.1154 20.8995 11.9247 20.9786 11.7257 20.9786C11.5268 20.9786 11.3361 20.8995 11.1954 20.7589L9.73793 19.3014C9.0555 18.619 8.13049 18.2357 7.16557 18.2357H3.49621C2.47521 18.2357 1.65002 17.4079 1.65002 16.3886V4.86857ZM10.9757 6.27637L10.2865 5.58714C9.60414 4.90477 8.67866 4.52142 7.71365 4.52142H3.49717C3.30545 4.52142 3.15002 4.67684 3.15002 4.86857V16.3886C3.15002 16.5811 3.30534 16.7357 3.49621 16.7357H7.16557C8.5285 16.7357 9.83499 17.2772 10.7986 18.2408L10.9757 18.4179V6.27637ZM12.4757 18.4179L12.6529 18.2408C13.6166 17.2771 14.9236 16.7357 16.2864 16.7357H20.5029C20.6946 16.7357 20.85 16.5803 20.85 16.3886V4.86857C20.85 4.67684 20.6946 4.52142 20.5029 4.52142H15.7378C14.7728 4.52142 13.8473 4.90477 13.165 5.58714L12.4757 6.27637V18.4179Z" fill="black"/>
</g>
</svg>
