<svg width="24" height="24" viewBox="0 0 24 24" fill="none" xmlns="http://www.w3.org/2000/svg">
<g id="emoji_outline">
<path id="Union" d="M14.9044 7.57387C14.5598 7.12933 14.091 6.79699 13.5574 6.61887L12.1794 6.17087C12.0736 6.13321 11.9821 6.06373 11.9173 5.97197C11.8526 5.88021 11.8179 5.77067 11.8179 5.65837C11.8179 5.54607 11.8526 5.43652 11.9173 5.34476C11.9821 5.253 12.0736 5.18353 12.1794 5.14587L12.8894 4.91487L12.8864 4.91387L13.5564 4.69587C13.9648 4.55652 14.3358 4.32541 14.6409 4.02031C14.946 3.71521 15.1771 3.34423 15.3164 2.93587L15.3274 2.90187L15.7754 1.52487C15.8127 1.41838 15.8821 1.32611 15.9741 1.26082C16.0661 1.19553 16.1761 1.16046 16.2889 1.16046C16.4017 1.16046 16.5118 1.19553 16.6038 1.26082C16.6958 1.32611 16.7652 1.41838 16.8024 1.52487L17.2494 2.90187C17.3888 3.3206 17.624 3.70101 17.9363 4.01281C18.2487 4.32461 18.6295 4.55918 19.0484 4.69787L20.4254 5.14587L20.4534 5.15287C20.5592 5.19053 20.6508 5.26 20.7155 5.35176C20.7802 5.44352 20.815 5.55307 20.815 5.66537C20.815 5.77767 20.7802 5.88721 20.7155 5.97897C20.6508 6.07073 20.5592 6.14021 20.4534 6.17787L19.0754 6.62587C18.9013 6.68348 18.7332 6.75783 18.5734 6.84787L18.5774 6.85287C18.1314 7.10416 17.7616 7.47148 17.5074 7.91587L17.5044 7.91287C17.4122 8.07498 17.3361 8.24581 17.2774 8.42287L16.8294 9.79887C16.792 9.90501 16.7225 9.99692 16.6306 10.0619C16.5388 10.1269 16.429 10.1619 16.3164 10.1619C16.2039 10.1619 16.0941 10.1269 16.0022 10.0619C15.9103 9.99692 15.8409 9.90501 15.8034 9.79887L15.3554 8.42187C15.2547 8.11569 15.1025 7.82892 14.9054 7.57387M22.6004 11.3749L21.8344 11.1269C21.6019 11.0494 21.3906 10.9187 21.2174 10.7453C21.0441 10.5719 20.9137 10.3605 20.8364 10.1279L20.5864 9.36387C20.5657 9.3048 20.5272 9.25362 20.4761 9.21742C20.4251 9.18121 20.364 9.16176 20.3014 9.16176C20.2388 9.16176 20.1778 9.18121 20.1267 9.21742C20.0757 9.25362 20.0371 9.3048 20.0164 9.36387L19.7684 10.1279C19.646 10.5007 19.3889 10.8145 19.0474 11.0079H19.0434V11.0099C18.9608 11.0565 18.8741 11.0957 18.7844 11.1269L18.0194 11.3749C17.9604 11.3956 17.9092 11.4341 17.873 11.4852C17.8368 11.5362 17.8173 11.5973 17.8173 11.6599C17.8173 11.7225 17.8368 11.7835 17.873 11.8346C17.9092 11.8856 17.9604 11.9242 18.0194 11.9449L18.7844 12.1939C19.0169 12.2714 19.2282 12.4021 19.4014 12.5755C19.5746 12.7489 19.7051 12.9603 19.7824 13.1929L20.0314 13.9579C20.0517 14.018 20.0906 14.0702 20.1424 14.1069C20.1806 14.134 20.2246 14.1518 20.2709 14.159C20.3172 14.1662 20.3645 14.1625 20.4091 14.1483C20.4538 14.134 20.4945 14.1096 20.528 14.0769C20.5616 14.0442 20.587 14.0041 20.6024 13.9599L20.8514 13.1959C20.9287 12.9631 21.0593 12.7516 21.2327 12.5782C21.4061 12.4047 21.6177 12.2742 21.8504 12.1969L22.6154 11.9489C22.6745 11.9282 22.7257 11.8896 22.7619 11.8386C22.7981 11.7875 22.8175 11.7265 22.8175 11.6639C22.8175 11.6013 22.7981 11.5402 22.7619 11.4892C22.7257 11.4381 22.6745 11.3996 22.6154 11.3789L22.6004 11.3749ZM19.5644 14.9239C19.421 14.8218 19.2996 14.6919 19.2074 14.5419C18.9413 16.1576 18.2142 17.6621 17.1135 18.8745C16.0128 20.0869 14.5853 20.9556 13.0027 21.3762C11.4201 21.7967 9.74977 21.7513 8.1924 21.2452C6.63503 20.7392 5.25696 19.7941 4.22384 18.5236C3.19073 17.2531 2.54654 15.7113 2.36871 14.0835C2.19089 12.4556 2.487 10.8111 3.22145 9.34751C3.9559 7.88394 5.09743 6.66363 6.50881 5.83329C7.9202 5.00295 9.54136 4.59791 11.1774 4.66687C11.361 4.44871 11.6011 4.28538 11.8714 4.19487L13.2314 3.75287C13.3714 3.70487 13.5044 3.63987 13.6284 3.56087C12.7152 3.29442 11.7687 3.15973 10.8174 3.16087C5.29343 3.15987 0.81543 7.63787 0.81543 13.1609C0.81543 18.6849 5.29343 23.1629 10.8174 23.1629C15.6674 23.1629 19.7124 19.7099 20.6254 15.1269C20.4444 15.1711 20.2559 15.1758 20.0728 15.1408C19.8898 15.1058 19.7164 15.0318 19.5644 14.9239ZM10.8164 17.6639C10.1347 17.6647 9.46167 17.5102 8.84848 17.2122C8.2353 16.9142 7.69803 16.4804 7.27743 15.9439C7.1541 15.7877 6.97377 15.6868 6.77611 15.6636C6.57845 15.6403 6.37964 15.6965 6.22343 15.8199C6.06722 15.9432 5.96639 16.1235 5.94314 16.3212C5.91988 16.5189 5.9761 16.7177 6.09943 16.8739C6.66071 17.588 7.37704 18.1652 8.19423 18.5618C9.01143 18.9583 9.9081 19.1639 10.8164 19.1629C12.6764 19.1629 14.3964 18.3089 15.5284 16.8779C15.5895 16.8005 15.6347 16.7119 15.6615 16.6171C15.6884 16.5222 15.6962 16.4231 15.6847 16.3252C15.6732 16.2273 15.6425 16.1327 15.5944 16.0467C15.5463 15.9606 15.4818 15.8849 15.4044 15.8239C15.3271 15.7628 15.2385 15.7176 15.1436 15.6908C15.0488 15.6639 14.9496 15.6561 14.8517 15.6676C14.7539 15.6791 14.6592 15.7098 14.5732 15.7579C14.4872 15.806 14.4115 15.8705 14.3504 15.9479C13.9298 16.4828 13.3931 16.9151 12.7809 17.2122C12.1687 17.5093 11.4969 17.6634 10.8164 17.6629M9.06643 11.1619C9.06643 10.8303 8.93473 10.5124 8.70031 10.278C8.46589 10.0436 8.14795 9.91187 7.81643 9.91187C7.48491 9.91187 7.16697 10.0436 6.93255 10.278C6.69813 10.5124 6.56643 10.8303 6.56643 11.1619C6.56643 11.4934 6.69813 11.8113 6.93255 12.0458C7.16697 12.2802 7.48491 12.4119 7.81643 12.4119C8.14795 12.4119 8.46589 12.2802 8.70031 12.0458C8.93473 11.8113 9.06643 11.4934 9.06643 11.1619ZM15.0664 11.1619C15.0664 10.8303 14.9347 10.5124 14.7003 10.278C14.4659 10.0436 14.148 9.91187 13.8164 9.91187C13.4849 9.91187 13.167 10.0436 12.9325 10.278C12.6981 10.5124 12.5664 10.8303 12.5664 11.1619C12.5664 11.4934 12.6981 11.8113 12.9325 12.0458C13.167 12.2802 13.4849 12.4119 13.8164 12.4119C14.148 12.4119 14.4659 12.2802 14.7003 12.0458C14.9347 11.8113 15.0664 11.4934 15.0664 11.1619Z" fill="black"/>
</g>
</svg>
