<svg width="24" height="24" viewBox="0 0 24 24" fill="none" xmlns="http://www.w3.org/2000/svg">
<g id="gift_outline">
<path id="Union" fill-rule="evenodd" clip-rule="evenodd" d="M13.1074 2.36637C14.129 1.34477 15.7939 1.33682 16.8167 2.3597C17.8397 3.38267 17.8316 5.04755 16.8101 6.06907C16.569 6.31011 16.2297 6.50033 15.921 6.64709C15.7017 6.75136 15.4631 6.84956 15.222 6.94003H20.9018C21.7017 6.94003 22.35 7.58841 22.35 8.38822V11.8791C22.35 12.6789 21.7017 13.3273 20.9018 13.3273H20.6046V20.9555C20.6046 21.7553 19.9562 22.4037 19.1564 22.4037H4.84366C4.04385 22.4037 3.39548 21.7553 3.39548 20.9555V13.3273H3.09821C2.2984 13.3273 1.65002 12.6789 1.65002 11.8791V8.38822C1.65002 7.58841 2.2984 6.94003 3.09821 6.94003H8.25748C8.02032 6.85089 7.78551 6.75407 7.56905 6.65098C7.25861 6.50314 6.91908 6.31185 6.67636 6.06912C5.65476 5.04752 5.64681 3.38264 6.66969 2.35975C7.69266 1.33679 9.35754 1.34489 10.3791 2.36642C10.6201 2.60746 10.8103 2.94679 10.9571 3.25551C11.1121 3.58152 11.2537 3.95021 11.3764 4.30604C11.5224 4.72944 11.648 5.153 11.7429 5.49621C11.8367 5.15437 11.961 4.73254 12.1062 4.31033C12.2284 3.9548 12.3698 3.586 12.5255 3.25906C12.6734 2.94862 12.8646 2.6091 13.1074 2.36637ZM11.4246 8.44003H3.15002V11.8273H11.4246V8.44003ZM11.4246 13.3273H4.89548V20.9037H11.4246V13.3273ZM12.9246 20.9037V13.3273H19.1046V20.9037H12.9246ZM12.9246 11.8273V8.44003H20.85V11.8273H12.9246ZM15.7561 3.42036C15.324 2.98826 14.6089 2.9862 14.168 3.42703C14.1125 3.48253 14.0099 3.63077 13.8798 3.90401C13.7575 4.16076 13.6369 4.47157 13.5247 4.79799C13.3731 5.23892 13.2449 5.68462 13.1546 6.02151C13.4919 5.93054 13.9392 5.80091 14.3813 5.6484C14.7086 5.5355 15.0202 5.41447 15.2769 5.2924C15.551 5.1621 15.697 5.0608 15.7494 5.00841C16.1902 4.56761 16.1882 3.85249 15.7561 3.42036ZM9.3184 3.42708C8.8776 2.98628 8.16248 2.98829 7.73035 3.42041C7.29825 3.85251 7.29619 4.56763 7.73702 5.00846C7.79252 5.06396 7.94076 5.16659 8.214 5.29672C8.47075 5.41899 8.78156 5.53959 9.10798 5.65181C9.54891 5.80339 9.99461 5.93164 10.3315 6.02192C10.2405 5.68462 10.1109 5.23731 9.95839 4.79516C9.84549 4.46785 9.72446 4.15633 9.60239 3.89956C9.47209 3.62549 9.37079 3.47947 9.3184 3.42708Z" fill="black"/>
</g>
</svg>
