<svg xmlns="http://www.w3.org/2000/svg" width="24" height="24" viewBox="0 0 24 24" fill="none">
<path fill-rule="evenodd" clip-rule="evenodd" d="M4.56761 8.41485C4.04369 9.49899 3.75 10.7152 3.75 12C3.75 13.2848 4.04369 14.501 4.56761 15.5851C5.36858 15.1655 6.3553 14.8195 7.46856 14.564C7.36648 13.7451 7.3125 12.8849 7.3125 12C7.3125 11.1151 7.36648 10.2549 7.46856 9.43603C6.3553 9.18047 5.36858 8.83447 4.56761 8.41485ZM5.34242 7.12677C5.98241 7.45153 6.78684 7.73431 7.71484 7.95326C7.91826 6.98538 8.19358 6.10131 8.52865 5.33542C8.69248 4.96095 8.87333 4.60849 9.07106 4.28504C7.56921 4.85552 6.27715 5.85195 5.34242 7.12677ZM12 2.25C6.61522 2.25 2.25 6.61522 2.25 12C2.25 17.3848 6.61522 21.75 12 21.75C17.3848 21.75 21.75 17.3848 21.75 12C21.75 6.61522 17.3848 2.25 12 2.25ZM12 3.75C11.7045 3.75 11.3639 3.88373 10.9886 4.24648C10.6098 4.61271 10.2344 5.17886 9.90288 5.93665C9.61583 6.59278 9.37272 7.36729 9.18941 8.23034C10.1133 8.36335 11.1185 8.4375 12.1764 8.4375C13.1054 8.4375 13.9931 8.38034 14.8203 8.27654C14.6359 7.39491 14.3893 6.60447 14.0971 5.93665C13.7656 5.17886 13.3902 4.61271 13.0114 4.24648C12.6361 3.88373 12.2955 3.75 12 3.75ZM16.3009 8.02879C16.096 7.03135 15.8151 6.12118 15.4714 5.33542C15.3075 4.96095 15.1267 4.60849 14.9289 4.28504C16.4801 4.87424 17.8074 5.91779 18.7484 7.25314C18.0754 7.562 17.2465 7.82775 16.3009 8.02879ZM15.0595 9.75812C14.1429 9.87545 13.1736 9.9375 12.1764 9.9375C11.0514 9.9375 9.96291 9.85856 8.94613 9.71069C8.85939 10.4361 8.8125 11.2036 8.8125 12C8.8125 12.7964 8.85939 13.5639 8.94613 14.2893C9.96291 14.1414 11.0514 14.0625 12.1764 14.0625C13.1736 14.0625 14.1429 14.1246 15.0595 14.2419C15.1426 13.5305 15.1875 12.7791 15.1875 12C15.1875 11.2209 15.1426 10.4695 15.0595 9.75812ZM16.5407 14.4888C16.6368 13.6925 16.6875 12.8578 16.6875 12C16.6875 11.1422 16.6368 10.3075 16.5407 9.51116C17.662 9.27773 18.6674 8.95467 19.4997 8.55752C19.9814 9.60526 20.25 10.7713 20.25 12C20.25 13.2287 19.9814 14.3947 19.4997 15.4425C18.6674 15.0453 17.662 14.7223 16.5407 14.4888ZM14.8203 15.7235C13.9931 15.6197 13.1054 15.5625 12.1764 15.5625C11.1185 15.5625 10.1133 15.6366 9.18941 15.7697C9.37272 16.6327 9.61583 17.4072 9.90288 18.0633C10.2344 18.8211 10.6098 19.3873 10.9886 19.7535C11.3639 20.1163 11.7045 20.25 12 20.25C12.2955 20.25 12.6361 20.1163 13.0114 19.7535C13.3902 19.3873 13.7656 18.8211 14.0971 18.0633C14.3893 17.3955 14.6359 16.6051 14.8203 15.7235ZM14.9289 19.715C15.1267 19.3915 15.3075 19.039 15.4714 18.6646C15.8151 17.8788 16.096 16.9686 16.3009 15.9712C17.2465 16.1723 18.0754 16.438 18.7484 16.7469C17.8074 18.0822 16.4801 19.1258 14.9289 19.715ZM9.07106 19.715C8.87333 19.3915 8.69248 19.039 8.52865 18.6646C8.19358 17.8987 7.91826 17.0146 7.71484 16.0467C6.78684 16.2657 5.98241 16.5485 5.34242 16.8732C6.27715 18.1481 7.56921 19.1445 9.07106 19.715Z" fill="black"/>
</svg>