<svg width="24" height="24" viewBox="0 0 24 24" fill="none" xmlns="http://www.w3.org/2000/svg">
<g id="graduation_outline">
<path id="Union" fill-rule="evenodd" clip-rule="evenodd" d="M11.1941 2.2467C11.746 1.91777 12.4339 1.91777 12.9858 2.2467L22.5698 7.95817C23.1713 8.31664 23.328 9.05421 23.0399 9.61021V14.4153C23.0399 14.8295 22.7042 15.1653 22.2899 15.1653C21.8757 15.1653 21.5399 14.8295 21.5399 14.4153V10.7195L19.7789 11.769L19.7789 17.8584C19.7789 18.4775 19.4518 19.0505 18.9187 19.3653L13.5267 22.5493C12.6362 23.0751 11.526 23.0569 10.6532 22.5021L5.70518 19.3569C5.19997 19.0357 4.89397 18.4786 4.89397 17.88V12.0627L1.61009 10.1057C0.796639 9.62097 0.796635 8.44294 1.61009 7.95817L11.1941 2.2467ZM6.39397 12.9566V17.88C6.39397 17.9655 6.43769 18.0451 6.50986 18.091L11.4579 21.2362C11.8546 21.4884 12.3592 21.4967 12.764 21.2576L18.156 18.0737C18.2322 18.0287 18.2789 17.9469 18.2789 17.8584L18.2789 12.6629L12.9858 15.8172C12.4339 16.1461 11.746 16.1461 11.1941 15.8172L6.39397 12.9566ZM21.4415 9.03195L12.2179 3.53524C12.1391 3.48825 12.0408 3.48825 11.962 3.53524L2.73835 9.03195L11.962 14.5287C12.0408 14.5757 12.1391 14.5757 12.2179 14.5287L21.4415 9.03195Z" fill="black"/>
</g>
</svg>
