<svg xmlns="http://www.w3.org/2000/svg" width="24" height="24" viewBox="0 0 24 24" fill="none">
<path d="M11.95 20.95C11.75 20.95 11.56 20.87 11.42 20.73L3.22998 12.53C2.17998 11.48 1.59998 10.09 1.59998 8.61C1.59998 7.13 2.17998 5.73 3.22998 4.69C4.26998 3.64 5.66998 3.06 7.14998 3.06C8.62998 3.06 10.03 3.64 11.07 4.68L11.95 5.56L12.83 4.68C13.34 4.16 13.94 3.74 14.62 3.45C15.3 3.16 16.02 3.01 16.76 3C17.5 3 18.22 3.13 18.91 3.41C19.6 3.69 20.21 4.1 20.73 4.62C21.25 5.14 21.66 5.76 21.94 6.44C22.22 7.12 22.36 7.85 22.35 8.59C22.35 9.33 22.19 10.05 21.9 10.73C21.61 11.41 21.19 12.02 20.65 12.53L12.47 20.72C12.33 20.86 12.14 20.94 11.94 20.94L11.95 20.95Z" fill="black"/>
</svg>