<svg width="24" height="24" viewBox="0 0 24 24" fill="none" xmlns="http://www.w3.org/2000/svg">
<g id="home_outline">
<path id="Union" fill-rule="evenodd" clip-rule="evenodd" d="M12.2753 3.83244C12.1127 3.72252 11.8873 3.72252 11.7247 3.83244L3.92472 9.1073C3.80591 9.18764 3.75 9.30577 3.75 9.41605V19.2882C3.75 19.7843 4.18415 20.25 4.8 20.25H8.25V14.1528C8.25 13.0733 9.159 12.2616 10.2 12.2616H13.8C14.841 12.2616 15.75 13.0733 15.75 14.1528V20.25H19.2C19.8159 20.25 20.25 19.7843 20.25 19.2882V9.41605C20.25 9.30577 20.1941 9.18765 20.0753 9.1073L12.2753 3.83244ZM19.2 21.75C20.5724 21.75 21.75 20.6829 21.75 19.2882V9.41605C21.75 8.78754 21.4299 8.21256 20.9156 7.86476L13.1156 2.5899C12.4454 2.1367 11.5546 2.1367 10.8844 2.5899L3.08443 7.86476C2.57012 8.21256 2.25 8.78754 2.25 9.41605V19.2882C2.25 20.6829 3.42763 21.75 4.8 21.75H19.2ZM14.25 20.25V14.1528C14.25 13.9718 14.0845 13.7616 13.8 13.7616H10.2C9.91552 13.7616 9.75 13.9718 9.75 14.1528V20.25H14.25Z" fill="black"/>
</g>
</svg>
