<svg width="24" height="24" viewBox="0 0 24 24" fill="none" xmlns="http://www.w3.org/2000/svg">
<g id="home_filled">
<path id="Union" d="M2.9386 8.25167C2.60094 8.48001 2.40039 8.84967 2.40039 9.24369V19.774C2.40039 20.7824 3.26 21.5999 4.32039 21.5999H8C8.55228 21.5999 9 21.1522 9 20.5999V14.2964C9 13.6241 9.57308 13.0791 10.28 13.0791H13.72C14.4269 13.0791 15 13.6241 15 14.2964V20.5999C15 21.1522 15.4477 21.5999 16 21.5999H19.6804C20.7408 21.5999 21.6004 20.7824 21.6004 19.774V9.24369C21.6004 8.84967 21.3998 8.48001 21.0622 8.25167L12.7422 2.62515C12.2981 2.32482 11.7027 2.32482 11.2586 2.62515L2.9386 8.25167Z" fill="black"/>
</g>
</svg>
